<svg width="352" height="407" viewBox="0 0 352 407" fill="none" xmlns="http://www.w3.org/2000/svg">
<rect width="352" height="407" rx="20" fill="white"/>
<rect x="16" y="15" width="320" height="179" rx="20" fill="#7E13F8"/>
<path d="M87.4641 320V290.909H97.6346C99.6611 290.909 101.333 291.259 102.649 291.96C103.965 292.652 104.945 293.584 105.589 294.759C106.233 295.923 106.555 297.216 106.555 298.636C106.555 299.886 106.333 300.919 105.887 301.733C105.452 302.547 104.874 303.191 104.154 303.665C103.444 304.138 102.672 304.489 101.839 304.716V305C102.729 305.057 103.624 305.369 104.524 305.938C105.423 306.506 106.176 307.32 106.782 308.381C107.388 309.441 107.691 310.739 107.691 312.273C107.691 313.731 107.36 315.043 106.697 316.207C106.034 317.372 104.988 318.295 103.558 318.977C102.128 319.659 100.267 320 97.9755 320H87.4641ZM90.9869 316.875H97.9755C100.277 316.875 101.91 316.43 102.876 315.54C103.851 314.64 104.339 313.551 104.339 312.273C104.339 311.288 104.088 310.379 103.586 309.545C103.084 308.703 102.369 308.03 101.441 307.528C100.513 307.017 99.4149 306.761 98.146 306.761H90.9869V316.875ZM90.9869 303.693H97.521C98.5816 303.693 99.538 303.485 100.39 303.068C101.252 302.652 101.934 302.064 102.436 301.307C102.947 300.549 103.203 299.659 103.203 298.636C103.203 297.358 102.758 296.274 101.868 295.384C100.977 294.484 99.5664 294.034 97.6346 294.034H90.9869V303.693ZM121.889 320.455C119.919 320.455 118.191 319.986 116.704 319.048C115.227 318.111 114.072 316.799 113.238 315.114C112.414 313.428 112.002 311.458 112.002 309.205C112.002 306.932 112.414 304.948 113.238 303.253C114.072 301.558 115.227 300.241 116.704 299.304C118.191 298.366 119.919 297.898 121.889 297.898C123.859 297.898 125.582 298.366 127.059 299.304C128.546 300.241 129.701 301.558 130.525 303.253C131.359 304.948 131.775 306.932 131.775 309.205C131.775 311.458 131.359 313.428 130.525 315.114C129.701 316.799 128.546 318.111 127.059 319.048C125.582 319.986 123.859 320.455 121.889 320.455ZM121.889 317.443C123.385 317.443 124.616 317.06 125.582 316.293C126.548 315.526 127.263 314.517 127.727 313.267C128.191 312.017 128.423 310.663 128.423 309.205C128.423 307.746 128.191 306.387 127.727 305.128C127.263 303.868 126.548 302.85 125.582 302.074C124.616 301.297 123.385 300.909 121.889 300.909C120.393 300.909 119.162 301.297 118.196 302.074C117.23 302.85 116.515 303.868 116.051 305.128C115.587 306.387 115.355 307.746 115.355 309.205C115.355 310.663 115.587 312.017 116.051 313.267C116.515 314.517 117.23 315.526 118.196 316.293C119.162 317.06 120.393 317.443 121.889 317.443ZM145.756 320.455C143.786 320.455 142.058 319.986 140.571 319.048C139.094 318.111 137.939 316.799 137.105 315.114C136.282 313.428 135.87 311.458 135.87 309.205C135.87 306.932 136.282 304.948 137.105 303.253C137.939 301.558 139.094 300.241 140.571 299.304C142.058 298.366 143.786 297.898 145.756 297.898C147.726 297.898 149.449 298.366 150.926 299.304C152.413 300.241 153.569 301.558 154.392 303.253C155.226 304.948 155.642 306.932 155.642 309.205C155.642 311.458 155.226 313.428 154.392 315.114C153.569 316.799 152.413 318.111 150.926 319.048C149.449 319.986 147.726 320.455 145.756 320.455ZM145.756 317.443C147.252 317.443 148.483 317.06 149.449 316.293C150.415 315.526 151.13 314.517 151.594 313.267C152.058 312.017 152.29 310.663 152.29 309.205C152.29 307.746 152.058 306.387 151.594 305.128C151.13 303.868 150.415 302.85 149.449 302.074C148.483 301.297 147.252 300.909 145.756 300.909C144.26 300.909 143.029 301.297 142.063 302.074C141.097 302.85 140.382 303.868 139.918 305.128C139.454 306.387 139.222 307.746 139.222 309.205C139.222 310.663 139.454 312.017 139.918 313.267C140.382 314.517 141.097 315.526 142.063 316.293C143.029 317.06 144.26 317.443 145.756 317.443ZM170.248 298.182V301.023H158.941V298.182H170.248ZM162.237 292.955H165.589V313.75C165.589 314.697 165.726 315.407 166.001 315.881C166.285 316.345 166.645 316.657 167.081 316.818C167.526 316.97 167.994 317.045 168.487 317.045C168.856 317.045 169.159 317.027 169.396 316.989C169.633 316.941 169.822 316.903 169.964 316.875L170.646 319.886C170.419 319.972 170.101 320.057 169.694 320.142C169.287 320.237 168.771 320.284 168.146 320.284C167.199 320.284 166.271 320.08 165.362 319.673C164.462 319.266 163.714 318.646 163.118 317.812C162.53 316.979 162.237 315.928 162.237 314.659V292.955ZM190.355 303.068L187.343 303.92C187.154 303.419 186.875 302.931 186.505 302.457C186.145 301.974 185.653 301.577 185.028 301.264C184.403 300.952 183.603 300.795 182.627 300.795C181.292 300.795 180.18 301.103 179.289 301.719C178.409 302.325 177.968 303.097 177.968 304.034C177.968 304.867 178.271 305.526 178.877 306.009C179.484 306.491 180.431 306.894 181.718 307.216L184.957 308.011C186.908 308.485 188.361 309.209 189.318 310.185C190.274 311.151 190.752 312.396 190.752 313.92C190.752 315.17 190.393 316.288 189.673 317.273C188.963 318.258 187.968 319.034 186.69 319.602C185.412 320.17 183.925 320.455 182.23 320.455C180.004 320.455 178.163 319.972 176.704 319.006C175.246 318.04 174.323 316.629 173.934 314.773L177.116 313.977C177.419 315.152 177.992 316.032 178.835 316.619C179.687 317.206 180.8 317.5 182.173 317.5C183.735 317.5 184.976 317.169 185.895 316.506C186.823 315.833 187.287 315.028 187.287 314.091C187.287 313.333 187.021 312.699 186.491 312.188C185.961 311.667 185.146 311.278 184.048 311.023L180.412 310.17C178.413 309.697 176.946 308.963 176.008 307.969C175.08 306.965 174.616 305.71 174.616 304.205C174.616 302.973 174.962 301.884 175.653 300.938C176.354 299.991 177.306 299.247 178.508 298.707C179.72 298.168 181.093 297.898 182.627 297.898C184.787 297.898 186.482 298.371 187.713 299.318C188.953 300.265 189.834 301.515 190.355 303.068ZM205.287 298.182V301.023H193.98V298.182H205.287ZM197.276 292.955H200.628V313.75C200.628 314.697 200.766 315.407 201.04 315.881C201.324 316.345 201.684 316.657 202.12 316.818C202.565 316.97 203.033 317.045 203.526 317.045C203.895 317.045 204.198 317.027 204.435 316.989C204.672 316.941 204.861 316.903 205.003 316.875L205.685 319.886C205.458 319.972 205.141 320.057 204.733 320.142C204.326 320.237 203.81 320.284 203.185 320.284C202.238 320.284 201.31 320.08 200.401 319.673C199.501 319.266 198.753 318.646 198.157 317.812C197.569 316.979 197.276 315.928 197.276 314.659V292.955ZM210.33 320V298.182H213.569V301.477H213.796C214.194 300.398 214.913 299.522 215.955 298.849C216.997 298.177 218.171 297.841 219.478 297.841C219.724 297.841 220.032 297.846 220.401 297.855C220.77 297.865 221.05 297.879 221.239 297.898V301.307C221.125 301.278 220.865 301.236 220.458 301.179C220.06 301.113 219.639 301.08 219.194 301.08C218.133 301.08 217.186 301.302 216.353 301.747C215.529 302.183 214.875 302.789 214.392 303.565C213.919 304.332 213.682 305.208 213.682 306.193V320H210.33ZM231.633 320.511C230.251 320.511 228.996 320.251 227.869 319.73C226.742 319.2 225.847 318.438 225.184 317.443C224.521 316.439 224.19 315.227 224.19 313.807C224.19 312.557 224.436 311.544 224.929 310.767C225.421 309.981 226.079 309.366 226.903 308.92C227.727 308.475 228.636 308.144 229.63 307.926C230.634 307.699 231.643 307.519 232.656 307.386C233.982 307.216 235.056 307.088 235.88 307.003C236.714 306.908 237.32 306.752 237.699 306.534C238.087 306.316 238.281 305.937 238.281 305.398V305.284C238.281 303.883 237.897 302.794 237.13 302.017C236.373 301.241 235.222 300.852 233.679 300.852C232.078 300.852 230.824 301.203 229.914 301.903C229.005 302.604 228.366 303.352 227.997 304.148L224.815 303.011C225.383 301.686 226.141 300.653 227.088 299.915C228.044 299.167 229.086 298.646 230.213 298.352C231.349 298.049 232.467 297.898 233.565 297.898C234.266 297.898 235.071 297.983 235.98 298.153C236.898 298.314 237.784 298.651 238.636 299.162C239.498 299.673 240.213 300.445 240.781 301.477C241.349 302.509 241.633 303.892 241.633 305.625V320H238.281V317.045H238.11C237.883 317.519 237.504 318.026 236.974 318.565C236.444 319.105 235.738 319.564 234.858 319.943C233.977 320.322 232.902 320.511 231.633 320.511ZM232.145 317.5C233.47 317.5 234.588 317.24 235.497 316.719C236.415 316.198 237.107 315.526 237.571 314.702C238.044 313.878 238.281 313.011 238.281 312.102V309.034C238.139 309.205 237.826 309.361 237.343 309.503C236.87 309.635 236.321 309.754 235.696 309.858C235.08 309.953 234.479 310.038 233.892 310.114C233.314 310.18 232.845 310.237 232.485 310.284C231.614 310.398 230.8 310.582 230.042 310.838C229.294 311.084 228.688 311.458 228.224 311.96C227.77 312.453 227.542 313.125 227.542 313.977C227.542 315.142 227.973 316.023 228.835 316.619C229.706 317.206 230.809 317.5 232.145 317.5ZM247.752 328.182V298.182H250.99V301.648H251.388C251.634 301.269 251.975 300.786 252.411 300.199C252.856 299.602 253.49 299.072 254.314 298.608C255.148 298.134 256.275 297.898 257.695 297.898C259.532 297.898 261.151 298.357 262.553 299.276C263.954 300.194 265.048 301.496 265.834 303.182C266.62 304.867 267.013 306.856 267.013 309.148C267.013 311.458 266.62 313.461 265.834 315.156C265.048 316.842 263.959 318.149 262.567 319.077C261.175 319.995 259.57 320.455 257.752 320.455C256.35 320.455 255.228 320.223 254.385 319.759C253.542 319.285 252.894 318.75 252.439 318.153C251.985 317.547 251.634 317.045 251.388 316.648H251.104V328.182H247.752ZM251.047 309.091C251.047 310.739 251.289 312.192 251.772 313.452C252.255 314.702 252.96 315.682 253.888 316.392C254.816 317.093 255.953 317.443 257.297 317.443C258.699 317.443 259.868 317.074 260.806 316.335C261.753 315.587 262.463 314.583 262.936 313.324C263.419 312.055 263.661 310.644 263.661 309.091C263.661 307.557 263.424 306.174 262.951 304.943C262.487 303.703 261.781 302.723 260.834 302.003C259.897 301.274 258.718 300.909 257.297 300.909C255.934 300.909 254.788 301.255 253.86 301.946C252.932 302.628 252.231 303.584 251.757 304.815C251.284 306.037 251.047 307.462 251.047 309.091Z" fill="#131212"/>
<rect x="116" y="134" width="120" height="120" rx="60" fill="white"/>
<g clip-path="url(#clip0_308_505)">
<path d="M146.77 154C141.064 154 136.842 159.014 137.031 164.451C137.213 169.675 136.977 176.44 135.28 181.958C133.579 187.491 130.701 190.996 126 191.446V196.527C130.701 196.977 133.579 200.482 135.28 206.016C136.977 211.533 137.213 218.298 137.031 223.522C136.842 228.959 141.064 233.973 146.771 233.973H205.237C210.943 233.973 215.164 228.96 214.975 223.522C214.794 218.299 215.03 211.533 216.726 206.016C218.429 200.483 221.299 196.977 226 196.527V191.446C221.299 190.996 218.429 187.491 216.727 181.958C215.03 176.441 214.794 169.675 214.975 164.451C215.164 159.015 210.943 154 205.237 154H146.77H146.77ZM193.797 203.229C193.797 210.716 188.234 215.256 179.003 215.256H163.288C162.839 215.256 162.408 215.077 162.09 214.758C161.772 214.438 161.594 214.006 161.594 213.555V174.419C161.594 174.195 161.638 173.974 161.723 173.768C161.808 173.561 161.933 173.373 162.09 173.215C162.247 173.057 162.434 172.932 162.64 172.846C162.846 172.761 163.066 172.717 163.289 172.717H178.913C186.611 172.717 191.662 176.903 191.662 183.33C191.662 187.841 188.264 191.879 183.934 192.586V192.822C189.829 193.471 193.797 197.569 193.797 203.229ZM177.289 178.111H168.329V190.817H175.876C181.71 190.817 184.927 188.458 184.927 184.243C184.927 180.293 182.16 178.111 177.289 178.111ZM168.329 195.858V209.86H177.619C183.693 209.86 186.911 207.414 186.911 202.815C186.911 198.216 183.603 195.858 177.229 195.858H168.329V195.858Z" fill="#7E13F8"/>
</g>
<defs>
<clipPath id="clip0_308_505">
<rect width="100" height="80" fill="white" transform="translate(126 154)"/>
</clipPath>
</defs>
</svg>
