<svg width="352" height="407" viewBox="0 0 352 407" fill="none" xmlns="http://www.w3.org/2000/svg">
<rect width="352" height="407" rx="20" fill="white"/>
<rect x="16" y="15" width="320" height="179" rx="20" fill="#0277BD"/>
<path d="M162.932 310H159.409C159.201 308.987 158.836 308.097 158.315 307.33C157.804 306.562 157.179 305.919 156.44 305.398C155.711 304.867 154.902 304.47 154.011 304.205C153.121 303.939 152.193 303.807 151.227 303.807C149.466 303.807 147.87 304.252 146.44 305.142C145.02 306.032 143.888 307.344 143.045 309.077C142.212 310.81 141.795 312.936 141.795 315.455C141.795 317.973 142.212 320.099 143.045 321.832C143.888 323.565 145.02 324.877 146.44 325.767C147.87 326.657 149.466 327.102 151.227 327.102C152.193 327.102 153.121 326.97 154.011 326.705C154.902 326.439 155.711 326.046 156.44 325.526C157.179 324.995 157.804 324.347 158.315 323.58C158.836 322.803 159.201 321.913 159.409 320.909H162.932C162.667 322.396 162.184 323.726 161.483 324.901C160.782 326.075 159.911 327.074 158.869 327.898C157.828 328.712 156.658 329.332 155.361 329.759C154.073 330.185 152.695 330.398 151.227 330.398C148.746 330.398 146.54 329.792 144.608 328.58C142.676 327.367 141.156 325.644 140.048 323.409C138.94 321.174 138.386 318.523 138.386 315.455C138.386 312.386 138.94 309.735 140.048 307.5C141.156 305.265 142.676 303.542 144.608 302.33C146.54 301.117 148.746 300.511 151.227 300.511C152.695 300.511 154.073 300.724 155.361 301.151C156.658 301.577 157.828 302.202 158.869 303.026C159.911 303.84 160.782 304.834 161.483 306.009C162.184 307.173 162.667 308.504 162.932 310ZM184.533 308.182C184.363 306.742 183.672 305.625 182.46 304.83C181.247 304.034 179.761 303.636 177.999 303.636C176.711 303.636 175.585 303.845 174.619 304.261C173.662 304.678 172.914 305.251 172.374 305.98C171.844 306.709 171.579 307.538 171.579 308.466C171.579 309.242 171.763 309.91 172.133 310.469C172.512 311.018 172.995 311.477 173.582 311.847C174.169 312.206 174.784 312.505 175.428 312.741C176.072 312.969 176.664 313.153 177.204 313.295L180.158 314.091C180.916 314.29 181.759 314.564 182.687 314.915C183.624 315.265 184.519 315.743 185.371 316.349C186.233 316.946 186.943 317.713 187.502 318.651C188.061 319.588 188.34 320.739 188.34 322.102C188.34 323.674 187.928 325.095 187.104 326.364C186.29 327.633 185.097 328.641 183.525 329.389C181.962 330.137 180.064 330.511 177.829 330.511C175.746 330.511 173.942 330.175 172.417 329.503C170.902 328.83 169.709 327.893 168.837 326.69C167.976 325.488 167.488 324.091 167.374 322.5H171.011C171.105 323.598 171.475 324.508 172.119 325.227C172.772 325.937 173.596 326.468 174.59 326.818C175.594 327.159 176.674 327.33 177.829 327.33C179.174 327.33 180.381 327.112 181.451 326.676C182.521 326.231 183.369 325.616 183.994 324.83C184.619 324.034 184.931 323.106 184.931 322.045C184.931 321.08 184.661 320.294 184.121 319.688C183.582 319.081 182.871 318.589 181.991 318.21C181.11 317.831 180.158 317.5 179.136 317.216L175.556 316.193C173.283 315.54 171.484 314.607 170.158 313.395C168.833 312.183 168.17 310.597 168.17 308.636C168.17 307.008 168.61 305.587 169.491 304.375C170.381 303.153 171.574 302.206 173.07 301.534C174.576 300.852 176.257 300.511 178.113 300.511C179.988 300.511 181.655 300.848 183.113 301.52C184.571 302.183 185.727 303.092 186.579 304.247C187.441 305.402 187.895 306.714 187.942 308.182H184.533ZM210.041 308.182C209.871 306.742 209.179 305.625 207.967 304.83C206.755 304.034 205.268 303.636 203.507 303.636C202.219 303.636 201.092 303.845 200.126 304.261C199.17 304.678 198.422 305.251 197.882 305.98C197.352 306.709 197.087 307.538 197.087 308.466C197.087 309.242 197.271 309.91 197.641 310.469C198.019 311.018 198.502 311.477 199.089 311.847C199.677 312.206 200.292 312.505 200.936 312.741C201.58 312.969 202.172 313.153 202.712 313.295L205.666 314.091C206.424 314.29 207.267 314.564 208.195 314.915C209.132 315.265 210.027 315.743 210.879 316.349C211.741 316.946 212.451 317.713 213.01 318.651C213.569 319.588 213.848 320.739 213.848 322.102C213.848 323.674 213.436 325.095 212.612 326.364C211.798 327.633 210.605 328.641 209.033 329.389C207.47 330.137 205.571 330.511 203.337 330.511C201.253 330.511 199.449 330.175 197.925 329.503C196.41 328.83 195.216 327.893 194.345 326.69C193.483 325.488 192.996 324.091 192.882 322.5H196.518C196.613 323.598 196.982 324.508 197.626 325.227C198.28 325.937 199.104 326.468 200.098 326.818C201.102 327.159 202.181 327.33 203.337 327.33C204.681 327.33 205.889 327.112 206.959 326.676C208.029 326.231 208.876 325.616 209.501 324.83C210.126 324.034 210.439 323.106 210.439 322.045C210.439 321.08 210.169 320.294 209.629 319.688C209.089 319.081 208.379 318.589 207.499 318.21C206.618 317.831 205.666 317.5 204.643 317.216L201.064 316.193C198.791 315.54 196.992 314.607 195.666 313.395C194.34 312.183 193.678 310.597 193.678 308.636C193.678 307.008 194.118 305.587 194.999 304.375C195.889 303.153 197.082 302.206 198.578 301.534C200.084 300.852 201.765 300.511 203.621 300.511C205.496 300.511 207.162 300.848 208.621 301.52C210.079 302.183 211.234 303.092 212.087 304.247C212.948 305.402 213.403 306.714 213.45 308.182H210.041Z" fill="#131212"/>
<rect x="116" y="134" width="120" height="120" rx="60" fill="white"/>
<g clip-path="url(#clip0_308_502)">
<path d="M159.132 149H168.8V153.042H163.175V157.085H168.8V161.127H159.132V149ZM170.731 149H180.402V152.517H174.777V153.219H180.402V161.304H170.731V157.614H176.356V156.909H170.731V149ZM182.337 149H192.001V152.517H186.376V153.219H192.001V161.304H182.337V157.614H187.962V156.909H182.337V149Z" fill="#0277BD"/>
<path fill-rule="evenodd" clip-rule="evenodd" d="M175.966 239L149.926 231.77L142.25 166.689H209.75L202.078 231.763L175.966 239ZM157.426 196.149L158.142 204.129H185.806L184.88 214.479L175.978 216.886H175.97L167.082 214.486L166.513 208.123H158.499L159.616 220.655L175.966 225.193L192.342 220.655L194.337 198.29L194.532 196.149L195.973 179.99H155.99L156.717 187.974H187.228L186.5 196.149H157.426Z" fill="#0277BD"/>
</g>
<defs>
<clipPath id="clip0_308_502">
<rect width="90" height="90" fill="white" transform="translate(131 149)"/>
</clipPath>
</defs>
</svg>
