<svg width="352" height="407" viewBox="0 0 352 407" fill="none" xmlns="http://www.w3.org/2000/svg">
<rect width="352" height="407" rx="20" fill="white"/>
<rect x="16" y="15" width="320" height="179" rx="20" fill="#E14E1D"/>
<path d="M122.523 330V300.909H126.045V313.864H141.557V300.909H145.08V330H141.557V316.989H126.045V330H122.523ZM150.541 304.034V300.909H172.359V304.034H163.212V330H159.689V304.034H150.541ZM177.796 300.909H182.001L191.887 325.057H192.228L202.114 300.909H206.319V330H203.023V307.898H202.739L193.648 330H190.467L181.376 307.898H181.092V330H177.796V300.909ZM213.382 330V300.909H216.905V326.875H230.428V330H213.382Z" fill="#131212"/>
<rect x="116" y="134" width="120" height="120" rx="60" fill="white"/>
<g clip-path="url(#clip0_308_506)">
<mask id="mask0_308_506" style="mask-type:luminance" maskUnits="userSpaceOnUse" x="131" y="149" width="90" height="90">
<path d="M131 149H221V239H131V149Z" fill="white"/>
</mask>
<g mask="url(#mask0_308_506)">
<path d="M150.05 149H154.108V153.009H157.82V149H161.878V161.135H157.82V157.074H154.108V161.135H150.054L150.05 149ZM167.21 153.024H163.64V149H174.841V153.024H171.268V161.135H167.21V153.024ZM176.619 149H180.849L183.451 153.264L186.05 149H190.28V161.135H186.241V155.12L183.451 159.436H183.38L180.586 155.124V161.135H176.619V149ZM192.298 149H196.359V157.126H202.059V161.139H192.298V149Z" fill="#E14E1D"/>
<path fill-rule="evenodd" clip-rule="evenodd" d="M149.923 231.77L142.25 166.689H209.75L202.074 231.762L175.962 239L149.923 231.77ZM165.436 196.145L164.709 187.97H195.253L195.965 179.99H155.99L158.142 204.129H185.806L184.88 214.479L175.978 216.886H175.97L167.082 214.486L166.513 208.122H158.495L159.613 220.655L175.962 225.192L192.339 220.655L194.334 198.29L194.529 196.149H165.436V196.145Z" fill="#E14E1D"/>
</g>
</g>
<defs>
<clipPath id="clip0_308_506">
<rect width="90" height="90" fill="white" transform="translate(131 149)"/>
</clipPath>
</defs>
</svg>
