<svg width="352" height="407" viewBox="0 0 352 407" fill="none" xmlns="http://www.w3.org/2000/svg">
<rect width="352" height="407" rx="20" fill="white"/>
<rect x="16" y="15" width="320" height="179" rx="20" fill="#F5DE19"/>
<path d="M117 194C117 160.863 143.863 134 177 134V134C210.137 134 237 160.863 237 194V194C237 227.137 210.137 254 177 254V254C143.863 254 117 227.137 117 194V194Z" fill="white"/>
<path d="M192.775 230.566C195.389 229.044 198.727 230.196 201.121 232.045C201.464 232.31 201.821 232.557 202.193 232.786C204.164 233.999 206.438 234.63 208.753 234.607C213.424 234.607 216.411 232.271 216.411 229.036C216.411 225.179 213.343 223.799 208.2 221.549L205.38 220.34C197.237 216.873 191.837 212.531 191.837 203.351C191.837 194.896 198.266 188.454 208.35 188.454C211.615 188.219 214.876 188.949 217.728 190.555C219.268 191.422 220.652 192.524 221.835 193.813C223.554 195.688 222.752 198.53 220.609 199.9L219.471 200.627C217.448 201.92 214.701 200.909 212.705 199.576V199.576C211.412 198.713 209.887 198.263 208.333 198.286C207.655 198.218 206.97 198.292 206.322 198.503C205.674 198.715 205.077 199.059 204.57 199.514C204.062 199.968 203.655 200.524 203.374 201.145C203.093 201.766 202.944 202.438 202.937 203.12C202.937 206.501 205.033 207.873 209.872 209.977L212.691 211.186C222.274 215.296 227.691 219.483 227.691 228.899C227.691 239.051 219.716 244.614 209.006 244.614C204.833 244.88 200.672 243.933 197.026 241.886C194.841 240.66 192.897 239.071 191.27 237.198C189.438 235.088 190.36 231.972 192.775 230.566V230.566ZM152.832 231.725C155.535 230.085 158.693 231.415 161.217 233.319C162.216 234.072 163.43 234.526 165.03 234.526C168.733 234.526 171.073 233.077 171.073 227.441V194.735C171.073 191.621 173.597 189.097 176.711 189.097V189.097C179.824 189.097 182.349 191.621 182.349 194.735V227.591C182.349 239.266 175.492 244.58 165.51 244.58C161.982 244.773 158.478 243.894 155.459 242.058C153.861 241.087 152.439 239.872 151.239 238.466C149.402 236.314 150.413 233.192 152.832 231.725V231.725Z" fill="black"/>
<path d="M93.6591 300.909H97.1818V321.705C97.1818 323.561 96.8409 325.137 96.1591 326.435C95.4773 327.732 94.5161 328.717 93.2756 329.389C92.035 330.062 90.572 330.398 88.8864 330.398C87.2955 330.398 85.8797 330.109 84.6392 329.531C83.3987 328.944 82.4233 328.111 81.7131 327.031C81.0028 325.952 80.6477 324.669 80.6477 323.182H84.1136C84.1136 324.006 84.3172 324.725 84.7244 325.341C85.1411 325.947 85.7093 326.42 86.429 326.761C87.1487 327.102 87.9678 327.273 88.8864 327.273C89.8996 327.273 90.7614 327.06 91.4716 326.634C92.1818 326.207 92.7216 325.582 93.0909 324.759C93.4697 323.925 93.6591 322.907 93.6591 321.705V300.909ZM110.207 330.511C108.825 330.511 107.57 330.251 106.443 329.73C105.316 329.2 104.421 328.438 103.759 327.443C103.096 326.439 102.764 325.227 102.764 323.807C102.764 322.557 103.01 321.544 103.503 320.767C103.995 319.981 104.653 319.366 105.477 318.92C106.301 318.475 107.21 318.144 108.205 317.926C109.208 317.699 110.217 317.519 111.23 317.386C112.556 317.216 113.631 317.088 114.455 317.003C115.288 316.908 115.894 316.752 116.273 316.534C116.661 316.316 116.855 315.937 116.855 315.398V315.284C116.855 313.883 116.472 312.794 115.705 312.017C114.947 311.241 113.796 310.852 112.253 310.852C110.652 310.852 109.398 311.203 108.489 311.903C107.58 312.604 106.94 313.352 106.571 314.148L103.389 313.011C103.957 311.686 104.715 310.653 105.662 309.915C106.618 309.167 107.66 308.646 108.787 308.352C109.923 308.049 111.041 307.898 112.139 307.898C112.84 307.898 113.645 307.983 114.554 308.153C115.473 308.314 116.358 308.651 117.21 309.162C118.072 309.673 118.787 310.445 119.355 311.477C119.923 312.509 120.207 313.892 120.207 315.625V330H116.855V327.045H116.685C116.457 327.519 116.079 328.026 115.548 328.565C115.018 329.105 114.313 329.564 113.432 329.943C112.551 330.322 111.476 330.511 110.207 330.511ZM110.719 327.5C112.045 327.5 113.162 327.24 114.071 326.719C114.99 326.198 115.681 325.526 116.145 324.702C116.618 323.878 116.855 323.011 116.855 322.102V319.034C116.713 319.205 116.401 319.361 115.918 319.503C115.444 319.635 114.895 319.754 114.27 319.858C113.654 319.953 113.053 320.038 112.466 320.114C111.888 320.18 111.42 320.237 111.06 320.284C110.188 320.398 109.374 320.582 108.616 320.838C107.868 321.084 107.262 321.458 106.798 321.96C106.344 322.453 106.116 323.125 106.116 323.977C106.116 325.142 106.547 326.023 107.409 326.619C108.28 327.206 109.384 327.5 110.719 327.5ZM143.386 308.182L135.317 330H131.908L123.84 308.182H127.477L133.499 325.568H133.727L139.749 308.182H143.386ZM153.567 330.511C152.184 330.511 150.929 330.251 149.803 329.73C148.676 329.2 147.781 328.438 147.118 327.443C146.455 326.439 146.124 325.227 146.124 323.807C146.124 322.557 146.37 321.544 146.862 320.767C147.355 319.981 148.013 319.366 148.837 318.92C149.661 318.475 150.57 318.144 151.564 317.926C152.568 317.699 153.576 317.519 154.589 317.386C155.915 317.216 156.99 317.088 157.814 317.003C158.647 316.908 159.253 316.752 159.632 316.534C160.02 316.316 160.214 315.937 160.214 315.398V315.284C160.214 313.883 159.831 312.794 159.064 312.017C158.306 311.241 157.156 310.852 155.612 310.852C154.012 310.852 152.757 311.203 151.848 311.903C150.939 312.604 150.3 313.352 149.93 314.148L146.749 313.011C147.317 311.686 148.074 310.653 149.021 309.915C149.978 309.167 151.019 308.646 152.146 308.352C153.283 308.049 154.4 307.898 155.499 307.898C156.199 307.898 157.004 307.983 157.913 308.153C158.832 308.314 159.717 308.651 160.57 309.162C161.431 309.673 162.146 310.445 162.714 311.477C163.283 312.509 163.567 313.892 163.567 315.625V330H160.214V327.045H160.044C159.817 327.519 159.438 328.026 158.908 328.565C158.377 329.105 157.672 329.564 156.791 329.943C155.911 330.322 154.836 330.511 153.567 330.511ZM154.078 327.5C155.404 327.5 156.521 327.24 157.43 326.719C158.349 326.198 159.04 325.526 159.504 324.702C159.978 323.878 160.214 323.011 160.214 322.102V319.034C160.072 319.205 159.76 319.361 159.277 319.503C158.804 319.635 158.254 319.754 157.629 319.858C157.014 319.953 156.412 320.038 155.825 320.114C155.248 320.18 154.779 320.237 154.419 320.284C153.548 320.398 152.733 320.582 151.976 320.838C151.228 321.084 150.622 321.458 150.158 321.96C149.703 322.453 149.476 323.125 149.476 323.977C149.476 325.142 149.907 326.023 150.768 326.619C151.64 327.206 152.743 327.5 154.078 327.5ZM185.14 313.068L182.129 313.92C181.939 313.419 181.66 312.931 181.29 312.457C180.931 311.974 180.438 311.577 179.813 311.264C179.188 310.952 178.388 310.795 177.413 310.795C176.077 310.795 174.965 311.103 174.075 311.719C173.194 312.325 172.754 313.097 172.754 314.034C172.754 314.867 173.057 315.526 173.663 316.009C174.269 316.491 175.216 316.894 176.504 317.216L179.742 318.011C181.693 318.485 183.147 319.209 184.103 320.185C185.059 321.151 185.538 322.396 185.538 323.92C185.538 325.17 185.178 326.288 184.458 327.273C183.748 328.258 182.754 329.034 181.475 329.602C180.197 330.17 178.71 330.455 177.015 330.455C174.79 330.455 172.948 329.972 171.489 329.006C170.031 328.04 169.108 326.629 168.719 324.773L171.901 323.977C172.204 325.152 172.777 326.032 173.62 326.619C174.472 327.206 175.585 327.5 176.958 327.5C178.521 327.5 179.761 327.169 180.68 326.506C181.608 325.833 182.072 325.028 182.072 324.091C182.072 323.333 181.807 322.699 181.276 322.188C180.746 321.667 179.932 321.278 178.833 321.023L175.197 320.17C173.199 319.697 171.731 318.963 170.793 317.969C169.865 316.965 169.401 315.71 169.401 314.205C169.401 312.973 169.747 311.884 170.438 310.938C171.139 309.991 172.091 309.247 173.293 308.707C174.505 308.168 175.879 307.898 177.413 307.898C179.572 307.898 181.267 308.371 182.498 309.318C183.738 310.265 184.619 311.515 185.14 313.068ZM199.447 330.455C197.402 330.455 195.641 329.972 194.163 329.006C192.686 328.04 191.55 326.709 190.754 325.014C189.959 323.319 189.561 321.383 189.561 319.205C189.561 316.989 189.968 315.033 190.783 313.338C191.607 311.634 192.752 310.303 194.22 309.347C195.697 308.381 197.421 307.898 199.391 307.898C200.925 307.898 202.307 308.182 203.538 308.75C204.769 309.318 205.778 310.114 206.564 311.136C207.35 312.159 207.838 313.352 208.027 314.716H204.675C204.419 313.722 203.851 312.841 202.97 312.074C202.099 311.297 200.925 310.909 199.447 310.909C198.141 310.909 196.995 311.25 196.01 311.932C195.035 312.604 194.272 313.556 193.723 314.787C193.183 316.009 192.913 317.443 192.913 319.091C192.913 320.777 193.179 322.244 193.709 323.494C194.249 324.744 195.006 325.715 195.982 326.406C196.966 327.098 198.122 327.443 199.447 327.443C200.319 327.443 201.109 327.292 201.82 326.989C202.53 326.686 203.131 326.25 203.624 325.682C204.116 325.114 204.466 324.432 204.675 323.636H208.027C207.838 324.924 207.369 326.084 206.621 327.116C205.882 328.139 204.902 328.954 203.68 329.56C202.468 330.156 201.057 330.455 199.447 330.455ZM212.928 330V308.182H216.166V311.477H216.393C216.791 310.398 217.511 309.522 218.553 308.849C219.594 308.177 220.768 307.841 222.075 307.841C222.321 307.841 222.629 307.846 222.999 307.855C223.368 307.865 223.647 307.879 223.837 307.898V311.307C223.723 311.278 223.463 311.236 223.055 311.179C222.658 311.113 222.236 311.08 221.791 311.08C220.731 311.08 219.784 311.302 218.95 311.747C218.126 312.183 217.473 312.789 216.99 313.565C216.517 314.332 216.28 315.208 216.28 316.193V330H212.928ZM227.81 330V308.182H231.163V330H227.81ZM229.515 304.545C228.862 304.545 228.298 304.323 227.825 303.878C227.361 303.433 227.129 302.898 227.129 302.273C227.129 301.648 227.361 301.113 227.825 300.668C228.298 300.223 228.862 300 229.515 300C230.168 300 230.727 300.223 231.191 300.668C231.665 301.113 231.901 301.648 231.901 302.273C231.901 302.898 231.665 303.433 231.191 303.878C230.727 304.323 230.168 304.545 229.515 304.545ZM237.303 338.182V308.182H240.541V311.648H240.939C241.185 311.269 241.526 310.786 241.962 310.199C242.407 309.602 243.041 309.072 243.865 308.608C244.698 308.134 245.825 307.898 247.246 307.898C249.083 307.898 250.702 308.357 252.104 309.276C253.505 310.194 254.599 311.496 255.385 313.182C256.171 314.867 256.564 316.856 256.564 319.148C256.564 321.458 256.171 323.461 255.385 325.156C254.599 326.842 253.51 328.149 252.118 329.077C250.726 329.995 249.121 330.455 247.303 330.455C245.901 330.455 244.779 330.223 243.936 329.759C243.093 329.285 242.445 328.75 241.99 328.153C241.536 327.547 241.185 327.045 240.939 326.648H240.655V338.182H237.303ZM240.598 319.091C240.598 320.739 240.839 322.192 241.322 323.452C241.805 324.702 242.511 325.682 243.439 326.392C244.367 327.093 245.503 327.443 246.848 327.443C248.25 327.443 249.419 327.074 250.357 326.335C251.304 325.587 252.014 324.583 252.487 323.324C252.97 322.055 253.212 320.644 253.212 319.091C253.212 317.557 252.975 316.174 252.501 314.943C252.037 313.703 251.332 312.723 250.385 312.003C249.447 311.274 248.268 310.909 246.848 310.909C245.484 310.909 244.339 311.255 243.411 311.946C242.482 312.628 241.782 313.584 241.308 314.815C240.835 316.037 240.598 317.462 240.598 319.091ZM271.166 308.182V311.023H259.859V308.182H271.166ZM263.155 302.955H266.507V323.75C266.507 324.697 266.644 325.407 266.919 325.881C267.203 326.345 267.563 326.657 267.999 326.818C268.444 326.97 268.912 327.045 269.405 327.045C269.774 327.045 270.077 327.027 270.314 326.989C270.551 326.941 270.74 326.903 270.882 326.875L271.564 329.886C271.337 329.972 271.019 330.057 270.612 330.142C270.205 330.237 269.689 330.284 269.064 330.284C268.117 330.284 267.189 330.08 266.28 329.673C265.38 329.266 264.632 328.646 264.036 327.812C263.448 326.979 263.155 325.928 263.155 324.659V302.955Z" fill="#131212"/>
</svg>
