<svg width="352" height="407" viewBox="0 0 352 407" fill="none" xmlns="http://www.w3.org/2000/svg">
<rect width="352" height="407" rx="20" fill="white"/>
<rect x="16" y="15" width="320" height="179" rx="20" fill="#01EC64"/>
<path d="M87.093 290.909H91.2976L101.184 315.057H101.525L111.411 290.909H115.616V320H112.32V297.898H112.036L102.945 320H99.7635L90.6726 297.898H90.3885V320H87.093V290.909ZM131.088 320.455C129.118 320.455 127.39 319.986 125.903 319.048C124.426 318.111 123.271 316.799 122.438 315.114C121.614 313.428 121.202 311.458 121.202 309.205C121.202 306.932 121.614 304.948 122.438 303.253C123.271 301.558 124.426 300.241 125.903 299.304C127.39 298.366 129.118 297.898 131.088 297.898C133.058 297.898 134.781 298.366 136.259 299.304C137.745 300.241 138.901 301.558 139.724 303.253C140.558 304.948 140.974 306.932 140.974 309.205C140.974 311.458 140.558 313.428 139.724 315.114C138.901 316.799 137.745 318.111 136.259 319.048C134.781 319.986 133.058 320.455 131.088 320.455ZM131.088 317.443C132.584 317.443 133.815 317.06 134.781 316.293C135.747 315.526 136.462 314.517 136.926 313.267C137.39 312.017 137.622 310.663 137.622 309.205C137.622 307.746 137.39 306.387 136.926 305.128C136.462 303.868 135.747 302.85 134.781 302.074C133.815 301.297 132.584 300.909 131.088 300.909C129.592 300.909 128.361 301.297 127.395 302.074C126.429 302.85 125.714 303.868 125.25 305.128C124.786 306.387 124.554 307.746 124.554 309.205C124.554 310.663 124.786 312.017 125.25 313.267C125.714 314.517 126.429 315.526 127.395 316.293C128.361 317.06 129.592 317.443 131.088 317.443ZM149.444 306.875V320H146.092V298.182H149.33V301.591H149.614C150.126 300.483 150.902 299.593 151.944 298.92C152.986 298.239 154.33 297.898 155.978 297.898C157.455 297.898 158.748 298.201 159.856 298.807C160.964 299.403 161.826 300.312 162.441 301.534C163.057 302.746 163.364 304.28 163.364 306.136V320H160.012V306.364C160.012 304.65 159.567 303.314 158.677 302.358C157.787 301.392 156.565 300.909 155.012 300.909C153.942 300.909 152.986 301.141 152.143 301.605C151.309 302.069 150.651 302.746 150.168 303.636C149.685 304.527 149.444 305.606 149.444 306.875ZM178.297 328.636C176.678 328.636 175.286 328.428 174.121 328.011C172.956 327.604 171.985 327.064 171.209 326.392C170.442 325.729 169.831 325.019 169.376 324.261L172.047 322.386C172.35 322.784 172.733 323.239 173.197 323.75C173.661 324.271 174.296 324.721 175.101 325.099C175.915 325.488 176.981 325.682 178.297 325.682C180.058 325.682 181.512 325.256 182.658 324.403C183.804 323.551 184.376 322.216 184.376 320.398V315.966H184.092C183.846 316.364 183.496 316.856 183.041 317.443C182.596 318.021 181.952 318.537 181.109 318.991C180.276 319.437 179.149 319.659 177.729 319.659C175.967 319.659 174.386 319.242 172.984 318.409C171.592 317.576 170.489 316.364 169.675 314.773C168.87 313.182 168.467 311.25 168.467 308.977C168.467 306.742 168.86 304.796 169.646 303.139C170.432 301.473 171.526 300.185 172.928 299.276C174.329 298.357 175.948 297.898 177.786 297.898C179.206 297.898 180.333 298.134 181.166 298.608C182.009 299.072 182.653 299.602 183.098 300.199C183.553 300.786 183.903 301.269 184.149 301.648H184.49V298.182H187.729V320.625C187.729 322.5 187.303 324.025 186.45 325.199C185.607 326.383 184.471 327.249 183.041 327.798C181.621 328.357 180.039 328.636 178.297 328.636ZM178.183 316.648C179.528 316.648 180.664 316.34 181.592 315.724C182.52 315.109 183.226 314.223 183.709 313.068C184.192 311.913 184.433 310.53 184.433 308.92C184.433 307.348 184.196 305.961 183.723 304.759C183.25 303.556 182.549 302.614 181.621 301.932C180.693 301.25 179.547 300.909 178.183 300.909C176.763 300.909 175.579 301.269 174.632 301.989C173.695 302.708 172.989 303.674 172.516 304.886C172.052 306.098 171.82 307.443 171.82 308.92C171.82 310.436 172.056 311.776 172.53 312.94C173.013 314.096 173.723 315.005 174.661 315.668C175.607 316.321 176.782 316.648 178.183 316.648ZM202.729 320.455C200.759 320.455 199.031 319.986 197.544 319.048C196.067 318.111 194.911 316.799 194.078 315.114C193.254 313.428 192.842 311.458 192.842 309.205C192.842 306.932 193.254 304.948 194.078 303.253C194.911 301.558 196.067 300.241 197.544 299.304C199.031 298.366 200.759 297.898 202.729 297.898C204.698 297.898 206.422 298.366 207.899 299.304C209.386 300.241 210.541 301.558 211.365 303.253C212.198 304.948 212.615 306.932 212.615 309.205C212.615 311.458 212.198 313.428 211.365 315.114C210.541 316.799 209.386 318.111 207.899 319.048C206.422 319.986 204.698 320.455 202.729 320.455ZM202.729 317.443C204.225 317.443 205.456 317.06 206.422 316.293C207.388 315.526 208.103 314.517 208.567 313.267C209.031 312.017 209.263 310.663 209.263 309.205C209.263 307.746 209.031 306.387 208.567 305.128C208.103 303.868 207.388 302.85 206.422 302.074C205.456 301.297 204.225 300.909 202.729 300.909C201.232 300.909 200.001 301.297 199.036 302.074C198.07 302.85 197.355 303.868 196.891 305.128C196.427 306.387 196.195 307.746 196.195 309.205C196.195 310.663 196.427 312.017 196.891 313.267C197.355 314.517 198.07 315.526 199.036 316.293C200.001 317.06 201.232 317.443 202.729 317.443ZM227.164 320H218.187V290.909H227.562C230.384 290.909 232.799 291.491 234.806 292.656C236.814 293.812 238.353 295.473 239.423 297.642C240.493 299.801 241.028 302.386 241.028 305.398C241.028 308.428 240.488 311.037 239.408 313.224C238.329 315.402 236.757 317.079 234.692 318.253C232.628 319.418 230.119 320 227.164 320ZM221.71 316.875H226.937C229.342 316.875 231.335 316.411 232.917 315.483C234.498 314.555 235.677 313.234 236.454 311.52C237.23 309.806 237.619 307.765 237.619 305.398C237.619 303.049 237.235 301.027 236.468 299.332C235.701 297.628 234.555 296.321 233.031 295.412C231.506 294.493 229.607 294.034 227.335 294.034H221.71V316.875ZM246.937 320V290.909H257.107C259.134 290.909 260.805 291.259 262.121 291.96C263.438 292.652 264.418 293.584 265.062 294.759C265.706 295.923 266.028 297.216 266.028 298.636C266.028 299.886 265.805 300.919 265.36 301.733C264.924 302.547 264.347 303.191 263.627 303.665C262.917 304.138 262.145 304.489 261.312 304.716V305C262.202 305.057 263.097 305.369 263.996 305.938C264.896 306.506 265.649 307.32 266.255 308.381C266.861 309.441 267.164 310.739 267.164 312.273C267.164 313.731 266.833 315.043 266.17 316.207C265.507 317.372 264.46 318.295 263.031 318.977C261.601 319.659 259.74 320 257.448 320H246.937ZM250.46 316.875H257.448C259.749 316.875 261.383 316.43 262.349 315.54C263.324 314.64 263.812 313.551 263.812 312.273C263.812 311.288 263.561 310.379 263.059 309.545C262.557 308.703 261.842 308.03 260.914 307.528C259.986 307.017 258.888 306.761 257.619 306.761H250.46V316.875ZM250.46 303.693H256.994C258.054 303.693 259.011 303.485 259.863 303.068C260.725 302.652 261.406 302.064 261.908 301.307C262.42 300.549 262.675 299.659 262.675 298.636C262.675 297.358 262.23 296.274 261.34 295.384C260.45 294.484 259.039 294.034 257.107 294.034H250.46V303.693Z" fill="#131212"/>
<rect x="116" y="134" width="120" height="120" rx="60" fill="white"/>
<g clip-path="url(#clip0_308_507)">
<path d="M183.441 155.131C179.846 150.158 176.75 145.107 176.117 144.058C176.102 144.04 176.084 144.025 176.064 144.015C176.044 144.005 176.022 144 176 144C175.979 144 175.957 144.005 175.937 144.015C175.917 144.025 175.899 144.04 175.884 144.058C175.251 145.107 172.155 150.158 168.56 155.131C137.699 201.013 173.42 231.978 173.42 231.978L173.72 232.211C173.986 236.989 174.652 243.866 174.652 243.866H177.315C177.315 243.866 177.981 237.028 178.248 232.211L178.547 231.939C178.58 231.978 214.302 201.014 183.441 155.131ZM175.984 231.278C175.984 231.278 174.386 229.686 173.953 228.87V228.792L175.884 178.83C175.884 178.674 176.084 178.674 176.084 178.83L178.015 228.792V228.87C177.582 229.686 175.984 231.278 175.984 231.278V231.278Z" fill="#01EC64"/>
</g>
<defs>
<clipPath id="clip0_308_507">
<rect width="40" height="100" fill="white" transform="translate(156 144)"/>
</clipPath>
</defs>
</svg>
