<svg width="352" height="407" viewBox="0 0 352 407" fill="none" xmlns="http://www.w3.org/2000/svg">
<rect width="352" height="407" rx="20" fill="white"/>
<rect x="16" y="15" width="320" height="179" rx="20" fill="#6C6C6C"/>
<path d="M134.591 300.909V330H131.182L115.33 307.159H115.045V330H111.523V300.909H114.932L130.841 323.807H131.125V300.909H134.591ZM150.333 330.455C148.231 330.455 146.417 329.991 144.893 329.062C143.378 328.125 142.208 326.818 141.384 325.142C140.57 323.456 140.163 321.496 140.163 319.261C140.163 317.027 140.57 315.057 141.384 313.352C142.208 311.638 143.354 310.303 144.822 309.347C146.299 308.381 148.022 307.898 149.992 307.898C151.129 307.898 152.251 308.087 153.359 308.466C154.467 308.845 155.475 309.46 156.384 310.312C157.293 311.155 158.018 312.273 158.558 313.665C159.097 315.057 159.367 316.771 159.367 318.807V320.227H142.549V317.33H155.958C155.958 316.098 155.712 315 155.219 314.034C154.737 313.068 154.045 312.306 153.146 311.747C152.255 311.188 151.204 310.909 149.992 310.909C148.657 310.909 147.502 311.241 146.526 311.903C145.56 312.557 144.817 313.409 144.296 314.46C143.775 315.511 143.515 316.638 143.515 317.841V319.773C143.515 321.42 143.799 322.817 144.367 323.963C144.945 325.099 145.745 325.966 146.768 326.562C147.79 327.15 148.979 327.443 150.333 327.443C151.214 327.443 152.009 327.32 152.719 327.074C153.439 326.818 154.059 326.439 154.58 325.938C155.101 325.426 155.504 324.792 155.788 324.034L159.026 324.943C158.685 326.042 158.112 327.008 157.308 327.841C156.503 328.665 155.508 329.309 154.325 329.773C153.141 330.227 151.81 330.455 150.333 330.455ZM166.381 308.182L171.608 317.102L176.835 308.182H180.699L173.653 319.091L180.699 330H176.835L171.608 321.534L166.381 330H162.517L169.449 319.091L162.517 308.182H166.381ZM194.971 308.182V311.023H183.664V308.182H194.971ZM186.96 302.955H190.312V323.75C190.312 324.697 190.449 325.407 190.724 325.881C191.008 326.345 191.368 326.657 191.803 326.818C192.248 326.97 192.717 327.045 193.21 327.045C193.579 327.045 193.882 327.027 194.119 326.989C194.355 326.941 194.545 326.903 194.687 326.875L195.369 329.886C195.141 329.972 194.824 330.057 194.417 330.142C194.01 330.237 193.494 330.284 192.869 330.284C191.922 330.284 190.994 330.08 190.085 329.673C189.185 329.266 188.437 328.646 187.84 327.812C187.253 326.979 186.96 325.928 186.96 324.659V302.955ZM211.604 300.909H215.127V321.705C215.127 323.561 214.786 325.137 214.104 326.435C213.423 327.732 212.461 328.717 211.221 329.389C209.98 330.062 208.517 330.398 206.832 330.398C205.241 330.398 203.825 330.109 202.585 329.531C201.344 328.944 200.369 328.111 199.658 327.031C198.948 325.952 198.593 324.669 198.593 323.182H202.059C202.059 324.006 202.263 324.725 202.67 325.341C203.086 325.947 203.655 326.42 204.374 326.761C205.094 327.102 205.913 327.273 206.832 327.273C207.845 327.273 208.707 327.06 209.417 326.634C210.127 326.207 210.667 325.582 211.036 324.759C211.415 323.925 211.604 322.907 211.604 321.705V300.909ZM238.096 308.182C237.925 306.742 237.234 305.625 236.022 304.83C234.81 304.034 233.323 303.636 231.562 303.636C230.274 303.636 229.147 303.845 228.181 304.261C227.225 304.678 226.477 305.251 225.937 305.98C225.406 306.709 225.141 307.538 225.141 308.466C225.141 309.242 225.326 309.91 225.695 310.469C226.074 311.018 226.557 311.477 227.144 311.847C227.731 312.206 228.347 312.505 228.991 312.741C229.635 312.969 230.227 313.153 230.766 313.295L233.721 314.091C234.478 314.29 235.321 314.564 236.249 314.915C237.187 315.265 238.082 315.743 238.934 316.349C239.796 316.946 240.506 317.713 241.065 318.651C241.623 319.588 241.903 320.739 241.903 322.102C241.903 323.674 241.491 325.095 240.667 326.364C239.853 327.633 238.659 328.641 237.087 329.389C235.525 330.137 233.626 330.511 231.391 330.511C229.308 330.511 227.504 330.175 225.979 329.503C224.464 328.83 223.271 327.893 222.4 326.69C221.538 325.488 221.05 324.091 220.937 322.5H224.573C224.668 323.598 225.037 324.508 225.681 325.227C226.335 325.937 227.158 326.468 228.153 326.818C229.156 327.159 230.236 327.33 231.391 327.33C232.736 327.33 233.943 327.112 235.013 326.676C236.084 326.231 236.931 325.616 237.556 324.83C238.181 324.034 238.494 323.106 238.494 322.045C238.494 321.08 238.224 320.294 237.684 319.688C237.144 319.081 236.434 318.589 235.553 318.21C234.673 317.831 233.721 317.5 232.698 317.216L229.119 316.193C226.846 315.54 225.047 314.607 223.721 313.395C222.395 312.183 221.732 310.597 221.732 308.636C221.732 307.008 222.173 305.587 223.053 304.375C223.943 303.153 225.137 302.206 226.633 301.534C228.138 300.852 229.819 300.511 231.675 300.511C233.55 300.511 235.217 300.848 236.675 301.52C238.134 302.183 239.289 303.092 240.141 304.247C241.003 305.402 241.458 306.714 241.505 308.182H238.096Z" fill="#131212"/>
<rect x="116" y="134" width="120" height="120" rx="60" fill="white"/>
<path d="M152.234 181.273H169.18V182.609H153.781V192.734H168.266V194.07H153.781V205.18H169.391V206.516H152.234V181.273ZM170.727 181.273H172.555L180.57 192.383L188.656 181.273L199.766 167.211L181.484 193.578L190.906 206.516H189.008L180.5 194.703L171.922 206.516H170.094L179.586 193.578L170.727 181.273ZM191.609 182.609V181.273H210.945V182.609H202.016V206.516H200.469V182.609H191.609ZM131 181.273H132.898L159.758 221.211L148.648 206.516L132.617 183.172L132.547 206.516H131V181.273ZM210.805 204.758C211.156 204.758 211.367 204.547 211.367 204.195C211.367 203.844 211.156 203.633 210.805 203.633C210.453 203.633 210.242 203.844 210.242 204.195C210.242 204.547 210.523 204.758 210.805 204.758ZM212.352 203.281C212.352 204.195 213.055 204.828 214.039 204.828C215.094 204.828 215.727 204.195 215.727 203.07V199.203H214.883V203.07C214.883 203.703 214.602 203.984 214.039 203.984C213.547 203.984 213.195 203.703 213.195 203.211H212.352V203.281ZM216.781 203.211C216.852 204.195 217.625 204.828 218.891 204.828C220.156 204.828 221 204.195 221 203.141C221 202.297 220.508 201.875 219.453 201.594L218.82 201.453C218.117 201.312 217.836 201.031 217.836 200.68C217.836 200.187 218.258 199.836 218.961 199.836C219.594 199.836 220.016 200.117 220.086 200.68H220.93C220.859 199.766 220.086 199.133 218.961 199.133C217.766 199.133 216.992 199.766 216.992 200.75C216.992 201.523 217.414 202.016 218.398 202.227L219.102 202.367C219.805 202.508 220.156 202.789 220.156 203.211C220.156 203.703 219.664 204.055 218.961 204.055C218.258 204.055 217.695 203.703 217.625 203.211H216.781Z" fill="black"/>
</svg>
