<svg width="352" height="407" viewBox="0 0 352 407" fill="none" xmlns="http://www.w3.org/2000/svg">
<rect width="352" height="407" rx="20" fill="white"/>
<rect x="16" y="15" width="320" height="179" rx="20" fill="#00D8FF"/>
<rect x="116" y="128" width="120" height="120" rx="60" fill="white"/>
<g clip-path="url(#clip0_308_500)">
<path d="M206.931 172.934C205.909 172.583 204.879 172.259 203.841 171.96C204.015 171.248 204.176 170.544 204.319 169.852C206.658 158.497 205.128 149.349 199.905 146.337C194.897 143.449 186.707 146.46 178.435 153.659C177.62 154.37 176.823 155.101 176.044 155.852C175.523 155.353 174.993 154.863 174.454 154.383C165.785 146.686 157.095 143.442 151.877 146.462C146.874 149.359 145.392 157.959 147.498 168.72C147.708 169.786 147.944 170.847 148.208 171.9C146.978 172.25 145.791 172.622 144.655 173.018C134.491 176.562 128 182.115 128 187.875C128 193.825 134.968 199.792 145.555 203.411C146.413 203.703 147.278 203.973 148.15 204.222C147.867 205.357 147.615 206.5 147.396 207.649C145.388 218.224 146.956 226.621 151.946 229.499C157.1 232.471 165.751 229.416 174.174 222.053C174.857 221.455 175.525 220.839 176.177 220.207C177.02 221.02 177.885 221.81 178.772 222.575C186.931 229.596 194.989 232.431 199.975 229.545C205.124 226.564 206.797 217.544 204.625 206.569C204.453 205.709 204.261 204.854 204.049 204.003C204.656 203.823 205.253 203.638 205.834 203.445C216.839 199.799 224 193.904 224 187.875C224 182.094 217.3 176.503 206.931 172.934ZM204.544 199.553C204.019 199.727 203.481 199.894 202.932 200.057C201.717 196.211 200.077 192.121 198.071 187.895C199.985 183.77 201.562 179.733 202.743 175.911C203.725 176.196 204.678 176.495 205.596 176.811C214.48 179.87 219.899 184.391 219.899 187.875C219.899 191.586 214.047 196.404 204.544 199.553ZM200.602 207.366C201.562 212.218 201.699 216.606 201.063 220.036C200.491 223.118 199.341 225.173 197.919 225.996C194.894 227.747 188.424 225.471 181.447 219.466C180.622 218.755 179.817 218.021 179.033 217.265C181.738 214.307 184.442 210.867 187.08 207.048C191.721 206.636 196.106 205.962 200.082 205.043C200.273 205.813 200.447 206.588 200.602 207.366ZM160.729 225.693C157.773 226.737 155.418 226.767 153.995 225.946C150.967 224.2 149.708 217.458 151.425 208.414C151.63 207.346 151.863 206.283 152.126 205.227C156.059 206.097 160.411 206.723 165.063 207.1C167.72 210.837 170.501 214.273 173.304 217.281C172.708 217.857 172.099 218.419 171.475 218.966C167.75 222.221 164.018 224.531 160.729 225.693ZM146.881 199.53C142.2 197.93 138.334 195.851 135.685 193.581C133.303 191.543 132.101 189.518 132.101 187.875C132.101 184.38 137.313 179.921 146.005 176.891C147.06 176.523 148.164 176.176 149.309 175.851C150.511 179.758 152.087 183.844 153.988 187.975C152.062 192.168 150.464 196.319 149.25 200.272C148.455 200.044 147.665 199.797 146.881 199.53ZM151.523 167.933C149.719 158.712 150.917 151.757 153.932 150.012C157.144 148.152 164.246 150.803 171.731 157.45C172.219 157.884 172.699 158.327 173.171 158.779C170.382 161.774 167.626 165.184 164.993 168.9C160.478 169.318 156.156 169.99 152.183 170.891C151.938 169.91 151.718 168.924 151.523 167.933ZM192.933 178.158C191.995 176.537 191.021 174.936 190.014 173.357C193.077 173.744 196.011 174.258 198.767 174.887C197.94 177.539 196.909 180.311 195.695 183.154C194.808 181.47 193.887 179.805 192.933 178.158ZM176.046 161.71C177.938 163.76 179.832 166.047 181.696 168.53C177.916 168.351 174.129 168.351 170.349 168.528C172.214 166.068 174.125 163.783 176.046 161.71ZM159.051 178.186C158.109 179.82 157.205 181.475 156.341 183.15C155.147 180.318 154.125 177.533 153.29 174.843C156.029 174.231 158.95 173.73 161.994 173.349C160.975 174.938 159.994 176.551 159.051 178.186ZM162.081 202.693C158.937 202.342 155.972 201.867 153.234 201.271C154.081 198.533 155.126 195.689 156.345 192.796C157.214 194.473 158.121 196.129 159.067 197.763C160.04 199.443 161.047 201.089 162.081 202.693ZM176.159 214.329C174.215 212.232 172.277 209.912 170.383 207.417C172.222 207.489 174.095 207.526 176 207.526C177.957 207.526 179.891 207.482 181.795 207.397C179.926 209.937 178.038 212.261 176.159 214.329ZM195.734 192.648C197.017 195.573 198.098 198.402 198.957 201.093C196.174 201.728 193.169 202.24 190.002 202.62C191.017 201.011 191.999 199.383 192.949 197.735C193.915 196.06 194.843 194.364 195.734 192.648ZM189.397 195.686C187.943 198.212 186.407 200.69 184.792 203.117C181.866 203.324 178.933 203.427 176 203.425C173.012 203.425 170.106 203.332 167.308 203.151C165.651 200.73 164.086 198.247 162.616 195.708C161.153 193.183 159.787 190.603 158.52 187.973C159.784 185.343 161.146 182.762 162.604 180.234L162.604 180.235C164.061 177.707 165.613 175.235 167.258 172.824C170.113 172.608 173.041 172.496 176 172.496C178.972 172.496 181.904 172.61 184.758 172.827C186.386 175.234 187.929 177.697 189.383 180.213C190.846 182.735 192.226 185.303 193.522 187.915C192.24 190.554 190.864 193.145 189.397 195.686ZM197.857 149.889C201.071 151.743 202.322 159.22 200.302 169.024C200.173 169.65 200.028 170.287 199.871 170.933C195.887 170.013 191.563 169.33 187.034 168.905C184.397 165.149 181.663 161.733 178.919 158.777C179.638 158.084 180.375 157.409 181.127 156.752C188.215 150.584 194.839 148.149 197.857 149.889ZM176 179.303C180.734 179.303 184.573 183.141 184.573 187.875C184.573 192.61 180.734 196.448 176 196.448C171.266 196.448 167.427 192.61 167.427 187.875C167.427 183.141 171.266 179.303 176 179.303Z" fill="#00D8FF"/>
</g>
<path d="M125.523 330V300.909H135.352C137.625 300.909 139.491 301.297 140.949 302.074C142.407 302.841 143.487 303.897 144.188 305.241C144.888 306.586 145.239 308.116 145.239 309.83C145.239 311.544 144.888 313.063 144.188 314.389C143.487 315.715 142.412 316.757 140.963 317.514C139.514 318.262 137.663 318.636 135.409 318.636H127.455V315.455H135.295C136.848 315.455 138.098 315.227 139.045 314.773C140.002 314.318 140.693 313.674 141.119 312.841C141.555 311.998 141.773 310.994 141.773 309.83C141.773 308.665 141.555 307.647 141.119 306.776C140.684 305.904 139.988 305.232 139.031 304.759C138.075 304.276 136.811 304.034 135.239 304.034H129.045V330H125.523ZM139.216 316.932L146.375 330H142.284L135.239 316.932H139.216ZM159.567 330.455C157.465 330.455 155.652 329.991 154.127 329.062C152.612 328.125 151.442 326.818 150.619 325.142C149.804 323.456 149.397 321.496 149.397 319.261C149.397 317.027 149.804 315.057 150.619 313.352C151.442 311.638 152.588 310.303 154.056 309.347C155.533 308.381 157.257 307.898 159.227 307.898C160.363 307.898 161.485 308.087 162.593 308.466C163.701 308.845 164.71 309.46 165.619 310.312C166.528 311.155 167.252 312.273 167.792 313.665C168.332 315.057 168.602 316.771 168.602 318.807V320.227H151.783V317.33H165.192C165.192 316.098 164.946 315 164.454 314.034C163.971 313.068 163.28 312.306 162.38 311.747C161.49 311.188 160.439 310.909 159.227 310.909C157.891 310.909 156.736 311.241 155.761 311.903C154.795 312.557 154.051 313.409 153.531 314.46C153.01 315.511 152.749 316.638 152.749 317.841V319.773C152.749 321.42 153.033 322.817 153.602 323.963C154.179 325.099 154.979 325.966 156.002 326.562C157.025 327.15 158.213 327.443 159.567 327.443C160.448 327.443 161.244 327.32 161.954 327.074C162.674 326.818 163.294 326.439 163.815 325.938C164.335 325.426 164.738 324.792 165.022 324.034L168.261 324.943C167.92 326.042 167.347 327.008 166.542 327.841C165.737 328.665 164.743 329.309 163.559 329.773C162.375 330.227 161.045 330.455 159.567 330.455ZM180.121 330.511C178.739 330.511 177.484 330.251 176.357 329.73C175.23 329.2 174.335 328.438 173.673 327.443C173.01 326.439 172.678 325.227 172.678 323.807C172.678 322.557 172.924 321.544 173.417 320.767C173.909 319.981 174.567 319.366 175.391 318.92C176.215 318.475 177.124 318.144 178.119 317.926C179.122 317.699 180.131 317.519 181.144 317.386C182.47 317.216 183.545 317.088 184.369 317.003C185.202 316.908 185.808 316.752 186.187 316.534C186.575 316.316 186.769 315.937 186.769 315.398V315.284C186.769 313.883 186.386 312.794 185.619 312.017C184.861 311.241 183.71 310.852 182.167 310.852C180.567 310.852 179.312 311.203 178.403 311.903C177.494 312.604 176.854 313.352 176.485 314.148L173.303 313.011C173.871 311.686 174.629 310.653 175.576 309.915C176.532 309.167 177.574 308.646 178.701 308.352C179.837 308.049 180.955 307.898 182.053 307.898C182.754 307.898 183.559 307.983 184.468 308.153C185.387 308.314 186.272 308.651 187.124 309.162C187.986 309.673 188.701 310.445 189.269 311.477C189.837 312.509 190.121 313.892 190.121 315.625V330H186.769V327.045H186.599C186.371 327.519 185.993 328.026 185.462 328.565C184.932 329.105 184.227 329.564 183.346 329.943C182.465 330.322 181.39 330.511 180.121 330.511ZM180.633 327.5C181.959 327.5 183.076 327.24 183.985 326.719C184.904 326.198 185.595 325.526 186.059 324.702C186.532 323.878 186.769 323.011 186.769 322.102V319.034C186.627 319.205 186.315 319.361 185.832 319.503C185.358 319.635 184.809 319.754 184.184 319.858C183.568 319.953 182.967 320.038 182.38 320.114C181.802 320.18 181.334 320.237 180.974 320.284C180.103 320.398 179.288 320.582 178.531 320.838C177.782 321.084 177.176 321.458 176.712 321.96C176.258 322.453 176.031 323.125 176.031 323.977C176.031 325.142 176.461 326.023 177.323 326.619C178.194 327.206 179.298 327.5 180.633 327.5ZM205.104 330.455C203.058 330.455 201.297 329.972 199.82 329.006C198.342 328.04 197.206 326.709 196.411 325.014C195.615 323.319 195.217 321.383 195.217 319.205C195.217 316.989 195.625 315.033 196.439 313.338C197.263 311.634 198.409 310.303 199.876 309.347C201.354 308.381 203.077 307.898 205.047 307.898C206.581 307.898 207.964 308.182 209.195 308.75C210.426 309.318 211.434 310.114 212.22 311.136C213.006 312.159 213.494 313.352 213.683 314.716H210.331C210.075 313.722 209.507 312.841 208.626 312.074C207.755 311.297 206.581 310.909 205.104 310.909C203.797 310.909 202.651 311.25 201.666 311.932C200.691 312.604 199.929 313.556 199.379 314.787C198.839 316.009 198.57 317.443 198.57 319.091C198.57 320.777 198.835 322.244 199.365 323.494C199.905 324.744 200.662 325.715 201.638 326.406C202.623 327.098 203.778 327.443 205.104 327.443C205.975 327.443 206.766 327.292 207.476 326.989C208.186 326.686 208.787 326.25 209.28 325.682C209.772 325.114 210.123 324.432 210.331 323.636H213.683C213.494 324.924 213.025 326.084 212.277 327.116C211.538 328.139 210.558 328.954 209.337 329.56C208.125 330.156 206.714 330.455 205.104 330.455ZM228.072 308.182V311.023H216.766V308.182H228.072ZM220.061 302.955H223.413V323.75C223.413 324.697 223.551 325.407 223.825 325.881C224.109 326.345 224.469 326.657 224.905 326.818C225.35 326.97 225.819 327.045 226.311 327.045C226.68 327.045 226.983 327.027 227.22 326.989C227.457 326.941 227.646 326.903 227.788 326.875L228.47 329.886C228.243 329.972 227.926 330.057 227.518 330.142C227.111 330.237 226.595 330.284 225.97 330.284C225.023 330.284 224.095 330.08 223.186 329.673C222.286 329.266 221.538 328.646 220.942 327.812C220.355 326.979 220.061 325.928 220.061 324.659V302.955Z" fill="#131212"/>
<defs>
<clipPath id="clip0_308_500">
<rect width="96" height="85.5" fill="white" transform="translate(128 145.25)"/>
</clipPath>
</defs>
</svg>
