<svg width="352" height="407" viewBox="0 0 352 407" fill="none" xmlns="http://www.w3.org/2000/svg">
<rect width="352" height="407" rx="20" fill="white"/>
<rect x="16" y="15" width="320" height="179" rx="20" fill="black"/>
<path d="M156.694 296.182C156.523 294.742 155.832 293.625 154.62 292.83C153.408 292.034 151.921 291.636 150.159 291.636C148.872 291.636 147.745 291.845 146.779 292.261C145.822 292.678 145.074 293.251 144.534 293.98C144.004 294.709 143.739 295.538 143.739 296.466C143.739 297.242 143.924 297.91 144.293 298.469C144.672 299.018 145.155 299.477 145.742 299.847C146.329 300.206 146.944 300.505 147.588 300.741C148.232 300.969 148.824 301.153 149.364 301.295L152.319 302.091C153.076 302.29 153.919 302.564 154.847 302.915C155.784 303.265 156.679 303.743 157.532 304.349C158.393 304.946 159.104 305.713 159.662 306.651C160.221 307.588 160.5 308.739 160.5 310.102C160.5 311.674 160.088 313.095 159.265 314.364C158.45 315.633 157.257 316.641 155.685 317.389C154.123 318.137 152.224 318.511 149.989 318.511C147.906 318.511 146.102 318.175 144.577 317.503C143.062 316.83 141.869 315.893 140.998 314.69C140.136 313.488 139.648 312.091 139.534 310.5H143.171C143.266 311.598 143.635 312.508 144.279 313.227C144.932 313.937 145.756 314.468 146.75 314.818C147.754 315.159 148.834 315.33 149.989 315.33C151.334 315.33 152.541 315.112 153.611 314.676C154.681 314.231 155.529 313.616 156.154 312.83C156.779 312.034 157.091 311.106 157.091 310.045C157.091 309.08 156.821 308.294 156.282 307.688C155.742 307.081 155.032 306.589 154.151 306.21C153.27 305.831 152.319 305.5 151.296 305.216L147.716 304.193C145.444 303.54 143.644 302.607 142.319 301.395C140.993 300.183 140.33 298.597 140.33 296.636C140.33 295.008 140.77 293.587 141.651 292.375C142.541 291.153 143.734 290.206 145.23 289.534C146.736 288.852 148.417 288.511 150.273 288.511C152.148 288.511 153.815 288.848 155.273 289.52C156.731 290.183 157.887 291.092 158.739 292.247C159.601 293.402 160.055 294.714 160.103 296.182H156.694ZM176.86 308.909H180.724L183.963 313.17L184.815 314.307L189.645 320.727H185.781L182.599 316.466L181.804 315.386L176.86 308.909ZM190.838 303.455C190.838 306.523 190.284 309.174 189.176 311.409C188.068 313.644 186.548 315.367 184.616 316.58C182.684 317.792 180.478 318.398 177.997 318.398C175.516 318.398 173.309 317.792 171.377 316.58C169.446 315.367 167.926 313.644 166.818 311.409C165.71 309.174 165.156 306.523 165.156 303.455C165.156 300.386 165.71 297.735 166.818 295.5C167.926 293.265 169.446 291.542 171.377 290.33C173.309 289.117 175.516 288.511 177.997 288.511C180.478 288.511 182.684 289.117 184.616 290.33C186.548 291.542 188.068 293.265 189.176 295.5C190.284 297.735 190.838 300.386 190.838 303.455ZM187.429 303.455C187.429 300.936 187.007 298.81 186.164 297.077C185.331 295.344 184.199 294.032 182.77 293.142C181.349 292.252 179.758 291.807 177.997 291.807C176.235 291.807 174.64 292.252 173.21 293.142C171.789 294.032 170.658 295.344 169.815 297.077C168.982 298.81 168.565 300.936 168.565 303.455C168.565 305.973 168.982 308.099 169.815 309.832C170.658 311.565 171.789 312.877 173.21 313.767C174.64 314.657 176.235 315.102 177.997 315.102C179.758 315.102 181.349 314.657 182.77 313.767C184.199 312.877 185.331 311.565 186.164 309.832C187.007 308.099 187.429 305.973 187.429 303.455ZM196.761 318V288.909H200.284V314.875H213.806V318H196.761Z" fill="#131212"/>
<rect x="118" y="138" width="120" height="120" rx="60" fill="white"/>
<path d="M203 213.625V176.125H196.75V219.875H221.75V213.625H203ZM184.25 176.125H171.75C170.092 176.125 168.503 176.783 167.331 177.956C166.158 179.128 165.5 180.717 165.5 182.375V213.625C165.5 215.283 166.158 216.872 167.331 218.044C168.503 219.217 170.092 219.875 171.75 219.875H174.875V226.125C174.875 227.783 175.533 229.372 176.706 230.544C177.878 231.717 179.467 232.375 181.125 232.375H187.375V226.125H181.125V219.875H184.25C185.908 219.875 187.497 219.217 188.669 218.044C189.842 216.872 190.5 215.283 190.5 213.625V182.375C190.5 180.717 189.842 179.128 188.669 177.956C187.497 176.783 185.908 176.125 184.25 176.125ZM171.75 213.625V182.375H184.25V213.625H171.75ZM153 219.875H134.25V213.625H153V201.125H140.5C138.842 201.125 137.253 200.467 136.081 199.294C134.908 198.122 134.25 196.533 134.25 194.875V182.375C134.25 180.717 134.908 179.128 136.081 177.956C137.253 176.783 138.842 176.125 140.5 176.125H159.25V182.375H140.5V194.875H153C154.658 194.875 156.247 195.533 157.419 196.706C158.592 197.878 159.25 199.467 159.25 201.125V213.625C159.25 215.283 158.592 216.872 157.419 218.044C156.247 219.217 154.658 219.875 153 219.875Z" fill="black"/>
</svg>
