<svg width="352" height="407" viewBox="0 0 352 407" fill="none" xmlns="http://www.w3.org/2000/svg">
<rect width="352" height="407" rx="20" fill="white"/>
<rect x="16" y="15" width="320" height="179" rx="20" fill="#B522A6"/>
<path d="M137.971 274.182C137.8 272.742 137.109 271.625 135.897 270.83C134.685 270.034 133.198 269.636 131.437 269.636C130.149 269.636 129.022 269.845 128.056 270.261C127.1 270.678 126.352 271.251 125.812 271.98C125.281 272.709 125.016 273.538 125.016 274.466C125.016 275.242 125.201 275.91 125.57 276.469C125.949 277.018 126.432 277.477 127.019 277.847C127.606 278.206 128.222 278.505 128.866 278.741C129.51 278.969 130.102 279.153 130.641 279.295L133.596 280.091C134.353 280.29 135.196 280.564 136.124 280.915C137.062 281.265 137.957 281.743 138.809 282.349C139.671 282.946 140.381 283.713 140.94 284.651C141.498 285.588 141.778 286.739 141.778 288.102C141.778 289.674 141.366 291.095 140.542 292.364C139.728 293.633 138.534 294.641 136.962 295.389C135.4 296.137 133.501 296.511 131.266 296.511C129.183 296.511 127.379 296.175 125.854 295.503C124.339 294.83 123.146 293.893 122.275 292.69C121.413 291.488 120.925 290.091 120.812 288.5H124.448C124.543 289.598 124.912 290.508 125.556 291.227C126.21 291.937 127.033 292.468 128.028 292.818C129.031 293.159 130.111 293.33 131.266 293.33C132.611 293.33 133.818 293.112 134.888 292.676C135.959 292.231 136.806 291.616 137.431 290.83C138.056 290.034 138.369 289.106 138.369 288.045C138.369 287.08 138.099 286.294 137.559 285.688C137.019 285.081 136.309 284.589 135.428 284.21C134.548 283.831 133.596 283.5 132.573 283.216L128.994 282.193C126.721 281.54 124.922 280.607 123.596 279.395C122.27 278.183 121.607 276.597 121.607 274.636C121.607 273.008 122.048 271.587 122.928 270.375C123.818 269.153 125.012 268.206 126.508 267.534C128.013 266.852 129.694 266.511 131.55 266.511C133.425 266.511 135.092 266.848 136.55 267.52C138.009 268.183 139.164 269.092 140.016 270.247C140.878 271.402 141.333 272.714 141.38 274.182H137.971ZM156.604 274.182V277.023H145.297V274.182H156.604ZM148.592 268.955H151.945V289.75C151.945 290.697 152.082 291.407 152.357 291.881C152.641 292.345 153 292.657 153.436 292.818C153.881 292.97 154.35 293.045 154.842 293.045C155.212 293.045 155.515 293.027 155.751 292.989C155.988 292.941 156.178 292.903 156.32 292.875L157.001 295.886C156.774 295.972 156.457 296.057 156.05 296.142C155.643 296.237 155.126 296.284 154.501 296.284C153.554 296.284 152.626 296.08 151.717 295.673C150.818 295.266 150.07 294.646 149.473 293.812C148.886 292.979 148.592 291.928 148.592 290.659V268.955ZM163.805 304.182C163.237 304.182 162.731 304.134 162.286 304.04C161.84 303.955 161.533 303.869 161.362 303.784L162.214 300.83C163.029 301.038 163.749 301.114 164.374 301.057C164.999 301 165.553 300.721 166.036 300.219C166.528 299.726 166.978 298.926 167.385 297.818L168.01 296.114L159.942 274.182H163.578L169.601 291.568H169.828L175.851 274.182H179.487L170.226 299.182C169.809 300.309 169.293 301.241 168.678 301.98C168.062 302.728 167.347 303.282 166.533 303.642C165.728 304.002 164.819 304.182 163.805 304.182ZM187.264 266.909V296H183.912V266.909H187.264ZM202.552 296.455C200.45 296.455 198.636 295.991 197.112 295.062C195.596 294.125 194.427 292.818 193.603 291.142C192.789 289.456 192.381 287.496 192.381 285.261C192.381 283.027 192.789 281.057 193.603 279.352C194.427 277.638 195.573 276.303 197.04 275.347C198.518 274.381 200.241 273.898 202.211 273.898C203.347 273.898 204.469 274.087 205.577 274.466C206.685 274.845 207.694 275.46 208.603 276.312C209.512 277.155 210.237 278.273 210.776 279.665C211.316 281.057 211.586 282.771 211.586 284.807V286.227H194.768V283.33H208.177C208.177 282.098 207.931 281 207.438 280.034C206.955 279.068 206.264 278.306 205.364 277.747C204.474 277.188 203.423 276.909 202.211 276.909C200.876 276.909 199.72 277.241 198.745 277.903C197.779 278.557 197.036 279.409 196.515 280.46C195.994 281.511 195.734 282.638 195.734 283.841V285.773C195.734 287.42 196.018 288.817 196.586 289.963C197.164 291.099 197.964 291.966 198.987 292.562C200.009 293.15 201.198 293.443 202.552 293.443C203.433 293.443 204.228 293.32 204.938 293.074C205.658 292.818 206.278 292.439 206.799 291.938C207.32 291.426 207.722 290.792 208.006 290.034L211.245 290.943C210.904 292.042 210.331 293.008 209.526 293.841C208.721 294.665 207.727 295.309 206.543 295.773C205.36 296.227 204.029 296.455 202.552 296.455ZM224.924 296.455C223.106 296.455 221.501 295.995 220.109 295.077C218.717 294.149 217.628 292.842 216.842 291.156C216.056 289.461 215.663 287.458 215.663 285.148C215.663 282.856 216.056 280.867 216.842 279.182C217.628 277.496 218.721 276.194 220.123 275.276C221.524 274.357 223.144 273.898 224.981 273.898C226.401 273.898 227.523 274.134 228.347 274.608C229.181 275.072 229.815 275.602 230.251 276.199C230.696 276.786 231.041 277.269 231.288 277.648H231.572V266.909H234.924V296H231.685V292.648H231.288C231.041 293.045 230.691 293.547 230.237 294.153C229.782 294.75 229.133 295.285 228.29 295.759C227.448 296.223 226.326 296.455 224.924 296.455ZM225.379 293.443C226.723 293.443 227.86 293.093 228.788 292.392C229.716 291.682 230.421 290.702 230.904 289.452C231.387 288.192 231.629 286.739 231.629 285.091C231.629 283.462 231.392 282.037 230.918 280.815C230.445 279.584 229.744 278.628 228.816 277.946C227.888 277.255 226.742 276.909 225.379 276.909C223.958 276.909 222.774 277.274 221.827 278.003C220.89 278.723 220.184 279.703 219.711 280.943C219.247 282.174 219.015 283.557 219.015 285.091C219.015 286.644 219.252 288.055 219.725 289.324C220.208 290.583 220.918 291.587 221.856 292.335C222.803 293.074 223.977 293.443 225.379 293.443ZM73.2638 344.455C71.2184 344.455 69.457 343.972 67.9798 343.006C66.5025 342.04 65.3661 340.709 64.5707 339.014C63.7752 337.319 63.3775 335.383 63.3775 333.205C63.3775 330.989 63.7847 329.033 64.5991 327.338C65.4229 325.634 66.5688 324.303 68.0366 323.347C69.5138 322.381 71.2373 321.898 73.207 321.898C74.7411 321.898 76.1237 322.182 77.3548 322.75C78.5858 323.318 79.5943 324.114 80.3803 325.136C81.1663 326.159 81.654 327.352 81.8434 328.716H78.4911C78.2354 327.722 77.6673 326.841 76.7866 326.074C75.9154 325.297 74.7411 324.909 73.2638 324.909C71.957 324.909 70.8112 325.25 69.8263 325.932C68.851 326.604 68.0887 327.556 67.5394 328.787C66.9996 330.009 66.7298 331.443 66.7298 333.091C66.7298 334.777 66.9949 336.244 67.5252 337.494C68.065 338.744 68.8226 339.715 69.7979 340.406C70.7828 341.098 71.9381 341.443 73.2638 341.443C74.1351 341.443 74.9258 341.292 75.636 340.989C76.3462 340.686 76.9476 340.25 77.44 339.682C77.9324 339.114 78.2828 338.432 78.4911 337.636H81.8434C81.654 338.924 81.1853 340.084 80.4371 341.116C79.6985 342.139 78.7184 342.954 77.4968 343.56C76.2847 344.156 74.8737 344.455 73.2638 344.455ZM95.6076 344.455C93.6379 344.455 91.9097 343.986 90.4229 343.048C88.9457 342.111 87.7904 340.799 86.957 339.114C86.1332 337.428 85.7212 335.458 85.7212 333.205C85.7212 330.932 86.1332 328.948 86.957 327.253C87.7904 325.558 88.9457 324.241 90.4229 323.304C91.9097 322.366 93.6379 321.898 95.6076 321.898C97.5773 321.898 99.3008 322.366 100.778 323.304C102.265 324.241 103.42 325.558 104.244 327.253C105.077 328.948 105.494 330.932 105.494 333.205C105.494 335.458 105.077 337.428 104.244 339.114C103.42 340.799 102.265 342.111 100.778 343.048C99.3008 343.986 97.5773 344.455 95.6076 344.455ZM95.6076 341.443C97.1038 341.443 98.3349 341.06 99.3008 340.293C100.267 339.526 100.982 338.517 101.446 337.267C101.91 336.017 102.142 334.663 102.142 333.205C102.142 331.746 101.91 330.387 101.446 329.128C100.982 327.868 100.267 326.85 99.3008 326.074C98.3349 325.297 97.1038 324.909 95.6076 324.909C94.1114 324.909 92.8803 325.297 91.9144 326.074C90.9485 326.85 90.2335 327.868 89.7695 329.128C89.3055 330.387 89.0735 331.746 89.0735 333.205C89.0735 334.663 89.3055 336.017 89.7695 337.267C90.2335 338.517 90.9485 339.526 91.9144 340.293C92.8803 341.06 94.1114 341.443 95.6076 341.443ZM110.611 344V322.182H113.85V325.591H114.134C114.588 324.426 115.322 323.522 116.336 322.878C117.349 322.224 118.566 321.898 119.986 321.898C121.426 321.898 122.623 322.224 123.58 322.878C124.546 323.522 125.299 324.426 125.838 325.591H126.066C126.624 324.464 127.462 323.569 128.58 322.906C129.697 322.234 131.037 321.898 132.6 321.898C134.551 321.898 136.146 322.509 137.387 323.73C138.627 324.942 139.248 326.831 139.248 329.398V344H135.895V329.398C135.895 327.788 135.455 326.637 134.574 325.946C133.694 325.255 132.657 324.909 131.463 324.909C129.929 324.909 128.741 325.373 127.898 326.301C127.055 327.22 126.634 328.384 126.634 329.795V344H123.225V329.057C123.225 327.816 122.822 326.817 122.017 326.06C121.212 325.293 120.176 324.909 118.907 324.909C118.035 324.909 117.221 325.141 116.463 325.605C115.715 326.069 115.109 326.713 114.645 327.537C114.191 328.351 113.963 329.294 113.963 330.364V344H110.611ZM145.377 352.182V322.182H148.615V325.648H149.013C149.259 325.269 149.6 324.786 150.036 324.199C150.481 323.602 151.115 323.072 151.939 322.608C152.773 322.134 153.9 321.898 155.32 321.898C157.157 321.898 158.776 322.357 160.178 323.276C161.579 324.194 162.673 325.496 163.459 327.182C164.245 328.867 164.638 330.856 164.638 333.148C164.638 335.458 164.245 337.461 163.459 339.156C162.673 340.842 161.584 342.149 160.192 343.077C158.8 343.995 157.195 344.455 155.377 344.455C153.975 344.455 152.853 344.223 152.01 343.759C151.167 343.285 150.519 342.75 150.064 342.153C149.61 341.547 149.259 341.045 149.013 340.648H148.729V352.182H145.377ZM148.672 333.091C148.672 334.739 148.914 336.192 149.397 337.452C149.88 338.702 150.585 339.682 151.513 340.392C152.441 341.093 153.578 341.443 154.922 341.443C156.324 341.443 157.493 341.074 158.431 340.335C159.378 339.587 160.088 338.583 160.561 337.324C161.044 336.055 161.286 334.644 161.286 333.091C161.286 331.557 161.049 330.174 160.576 328.943C160.112 327.703 159.406 326.723 158.459 326.003C157.522 325.274 156.343 324.909 154.922 324.909C153.559 324.909 152.413 325.255 151.485 325.946C150.557 326.628 149.856 327.584 149.382 328.815C148.909 330.037 148.672 331.462 148.672 333.091ZM178.615 344.455C176.646 344.455 174.917 343.986 173.431 343.048C171.953 342.111 170.798 340.799 169.965 339.114C169.141 337.428 168.729 335.458 168.729 333.205C168.729 330.932 169.141 328.948 169.965 327.253C170.798 325.558 171.953 324.241 173.431 323.304C174.917 322.366 176.646 321.898 178.615 321.898C180.585 321.898 182.309 322.366 183.786 323.304C185.273 324.241 186.428 325.558 187.252 327.253C188.085 328.948 188.502 330.932 188.502 333.205C188.502 335.458 188.085 337.428 187.252 339.114C186.428 340.799 185.273 342.111 183.786 343.048C182.309 343.986 180.585 344.455 178.615 344.455ZM178.615 341.443C180.112 341.443 181.343 341.06 182.309 340.293C183.275 339.526 183.989 338.517 184.453 337.267C184.917 336.017 185.15 334.663 185.15 333.205C185.15 331.746 184.917 330.387 184.453 329.128C183.989 327.868 183.275 326.85 182.309 326.074C181.343 325.297 180.112 324.909 178.615 324.909C177.119 324.909 175.888 325.297 174.922 326.074C173.956 326.85 173.241 327.868 172.777 329.128C172.313 330.387 172.081 331.746 172.081 333.205C172.081 334.663 172.313 336.017 172.777 337.267C173.241 338.517 173.956 339.526 174.922 340.293C175.888 341.06 177.119 341.443 178.615 341.443ZM196.971 330.875V344H193.619V322.182H196.858V325.591H197.142C197.653 324.483 198.43 323.593 199.471 322.92C200.513 322.239 201.858 321.898 203.505 321.898C204.983 321.898 206.275 322.201 207.383 322.807C208.491 323.403 209.353 324.312 209.968 325.534C210.584 326.746 210.892 328.28 210.892 330.136V344H207.539V330.364C207.539 328.65 207.094 327.314 206.204 326.358C205.314 325.392 204.092 324.909 202.539 324.909C201.469 324.909 200.513 325.141 199.67 325.605C198.837 326.069 198.179 326.746 197.696 327.636C197.213 328.527 196.971 329.606 196.971 330.875ZM226.165 344.455C224.063 344.455 222.249 343.991 220.725 343.062C219.21 342.125 218.04 340.818 217.216 339.142C216.402 337.456 215.995 335.496 215.995 333.261C215.995 331.027 216.402 329.057 217.216 327.352C218.04 325.638 219.186 324.303 220.654 323.347C222.131 322.381 223.855 321.898 225.824 321.898C226.961 321.898 228.083 322.087 229.191 322.466C230.299 322.845 231.307 323.46 232.216 324.312C233.125 325.155 233.85 326.273 234.39 327.665C234.929 329.057 235.199 330.771 235.199 332.807V334.227H218.381V331.33H231.79C231.79 330.098 231.544 329 231.051 328.034C230.569 327.068 229.877 326.306 228.978 325.747C228.087 325.188 227.036 324.909 225.824 324.909C224.489 324.909 223.334 325.241 222.358 325.903C221.392 326.557 220.649 327.409 220.128 328.46C219.607 329.511 219.347 330.638 219.347 331.841V333.773C219.347 335.42 219.631 336.817 220.199 337.963C220.777 339.099 221.577 339.966 222.6 340.562C223.623 341.15 224.811 341.443 226.165 341.443C227.046 341.443 227.841 341.32 228.551 341.074C229.271 340.818 229.891 340.439 230.412 339.938C230.933 339.426 231.336 338.792 231.62 338.034L234.858 338.943C234.517 340.042 233.944 341.008 233.14 341.841C232.335 342.665 231.34 343.309 230.157 343.773C228.973 344.227 227.642 344.455 226.165 344.455ZM243.651 330.875V344H240.299V322.182H243.537V325.591H243.821C244.333 324.483 245.109 323.593 246.151 322.92C247.193 322.239 248.537 321.898 250.185 321.898C251.662 321.898 252.955 322.201 254.063 322.807C255.171 323.403 256.033 324.312 256.648 325.534C257.264 326.746 257.571 328.28 257.571 330.136V344H254.219V330.364C254.219 328.65 253.774 327.314 252.884 326.358C251.994 325.392 250.772 324.909 249.219 324.909C248.149 324.909 247.193 325.141 246.35 325.605C245.516 326.069 244.858 326.746 244.375 327.636C243.892 328.527 243.651 329.606 243.651 330.875ZM273.186 322.182V325.023H261.879V322.182H273.186ZM265.174 316.955H268.527V337.75C268.527 338.697 268.664 339.407 268.939 339.881C269.223 340.345 269.583 340.657 270.018 340.818C270.463 340.97 270.932 341.045 271.424 341.045C271.794 341.045 272.097 341.027 272.333 340.989C272.57 340.941 272.76 340.903 272.902 340.875L273.583 343.886C273.356 343.972 273.039 344.057 272.632 344.142C272.225 344.237 271.708 344.284 271.083 344.284C270.136 344.284 269.208 344.08 268.299 343.673C267.4 343.266 266.652 342.646 266.055 341.812C265.468 340.979 265.174 339.928 265.174 338.659V316.955ZM293.292 327.068L290.281 327.92C290.092 327.419 289.812 326.931 289.443 326.457C289.083 325.974 288.591 325.577 287.966 325.264C287.341 324.952 286.54 324.795 285.565 324.795C284.23 324.795 283.117 325.103 282.227 325.719C281.346 326.325 280.906 327.097 280.906 328.034C280.906 328.867 281.209 329.526 281.815 330.009C282.421 330.491 283.368 330.894 284.656 331.216L287.895 332.011C289.845 332.485 291.299 333.209 292.255 334.185C293.212 335.151 293.69 336.396 293.69 337.92C293.69 339.17 293.33 340.288 292.61 341.273C291.9 342.258 290.906 343.034 289.627 343.602C288.349 344.17 286.862 344.455 285.167 344.455C282.942 344.455 281.1 343.972 279.642 343.006C278.183 342.04 277.26 340.629 276.872 338.773L280.054 337.977C280.357 339.152 280.93 340.032 281.772 340.619C282.625 341.206 283.737 341.5 285.11 341.5C286.673 341.5 287.913 341.169 288.832 340.506C289.76 339.833 290.224 339.028 290.224 338.091C290.224 337.333 289.959 336.699 289.429 336.188C288.898 335.667 288.084 335.278 286.985 335.023L283.349 334.17C281.351 333.697 279.883 332.963 278.946 331.969C278.018 330.965 277.554 329.71 277.554 328.205C277.554 326.973 277.899 325.884 278.591 324.938C279.291 323.991 280.243 323.247 281.446 322.707C282.658 322.168 284.031 321.898 285.565 321.898C287.724 321.898 289.419 322.371 290.65 323.318C291.891 324.265 292.771 325.515 293.292 327.068Z" fill="#131212"/>
<rect x="116" y="134" width="120" height="120" rx="60" fill="white"/>
<path d="M193.558 172.175L193.246 173.804C192.762 176.892 192.937 177.775 194.262 178.921L195.542 179.979L194.217 185.887C193.425 189.412 192.454 192.367 191.837 193.337C191.308 194.175 190.692 195.408 190.558 196.071C190.337 196.862 189.587 197.658 188.442 198.362C187.429 198.937 185.442 200.479 184.033 201.717C182.908 202.729 182.133 203.35 181.712 203.617L180.337 204.704C179.984 205.229 179.718 205.807 179.55 206.417C179.454 206.862 179.508 207.158 179.65 207.375C179.787 207.583 180.025 207.729 180.35 207.821C180.735 207.911 181.131 207.943 181.525 207.917C182.417 207.856 183.3 207.699 184.158 207.45C184.45 207.371 184.679 207.296 184.879 207.229C185.187 206.85 185.9 206.133 187.162 204.887C190.512 201.583 191.792 199.775 190.471 200.262C189.983 200.437 190.204 199.996 191.042 199.112C192.808 197.392 193.821 194.792 195.937 186.637C197.612 180.2 197.612 180.108 198.846 180.108C199.425 180.108 201.062 180.208 201.062 180.208V172.175H197.304H193.558ZM209.554 185.362C209.287 185.362 208.846 185.762 208.583 186.204C208.1 186.996 208.671 187.479 215.946 192.021C220.267 194.758 223.75 197.092 223.662 197.271C223.575 197.4 220.046 199.696 215.817 202.342C208.142 207.1 208.1 207.146 208.804 208.117C209.687 209.262 208.804 209.658 218.767 203.442L226 198.812V195.329L217.929 190.346C213.567 187.612 209.775 185.408 209.554 185.362ZM142.533 185.85C142.312 185.85 138.521 188.1 134.158 190.787L126 195.771V199.254L134.112 204.325C138.612 207.1 142.404 209.396 142.579 209.396C142.754 209.396 143.108 208.996 143.462 208.512C143.992 207.675 143.546 207.321 136.096 202.604C129 198.15 128.25 197.533 128.958 197.05C129.4 196.742 132.75 194.667 136.367 192.421C144.612 187.35 144.171 187.7 143.508 186.642C143.246 186.204 142.8 185.808 142.537 185.85H142.533ZM178.717 185.946C177.5 185.937 174.883 187.792 167.05 194.187C166.712 194.992 166.683 195.546 166.837 195.904C166.937 196.15 167.121 196.321 167.375 196.446C167.625 196.571 167.95 196.646 168.308 196.675C169.021 196.737 169.862 196.625 170.542 196.492L171 196.387C171.157 196.177 171.363 196.008 171.6 195.896C172.083 195.629 174.112 193.779 176.142 191.796C179.712 188.179 180.55 186.546 179.096 186.017C178.977 185.969 178.845 185.945 178.717 185.946ZM187.867 188.458C186.796 188.487 184.867 189.729 181.562 192.367C179.904 193.712 178.854 194.437 178.292 194.587L176.108 196.312C175.287 197.812 175.167 198.742 175.383 199.254C175.438 199.381 175.516 199.495 175.615 199.591C175.714 199.687 175.83 199.762 175.958 199.812C176.277 199.938 176.616 200.002 176.958 200C177.776 199.991 178.589 199.872 179.375 199.646C179.785 199.536 180.189 199.408 180.587 199.262L180.708 199.212L180.929 199.096C181.346 198.558 182.304 197.546 183.504 196.379C187.296 192.721 189.233 190.121 188.837 189.15C188.658 188.679 188.35 188.442 187.867 188.458ZM177.767 192.958C177.458 192.992 176.767 193.525 175.521 194.617C173.721 196.208 171.758 197.125 171.079 196.717C170.921 196.752 170.763 196.786 170.604 196.817C169.912 196.954 169.05 197.067 168.279 197.004C167.916 196.982 167.56 196.893 167.229 196.742C166.917 196.599 166.668 196.347 166.529 196.033C166.375 195.658 166.375 195.192 166.55 194.596L163.842 196.821L157.712 201.892V210.112L177.796 194.292C177.792 194.118 177.814 193.946 177.862 193.779C178.017 193.221 178.008 192.937 177.767 192.962V192.958ZM186.408 195.621C186.104 195.621 185.596 196.05 184.783 196.912C183.679 198.092 181.942 199.233 181.021 199.467L180.879 199.542C180.728 199.604 180.575 199.662 180.421 199.717C180.171 199.8 179.846 199.9 179.471 200C178.721 200.204 177.787 200.392 176.954 200.371C176.561 200.37 176.172 200.294 175.808 200.146C175.465 200.004 175.191 199.736 175.042 199.396C174.8 198.817 174.896 198.004 175.425 196.85L157.708 210.804V215.825H165.492L182 202.858C182.429 202.383 183.075 201.733 183.946 200.921C186.279 198.758 186.808 198.012 186.808 196.908C186.808 196.05 186.712 195.617 186.408 195.617V195.621ZM190.337 203.746L188.925 205.154C188.133 205.904 186.721 206.829 185.754 207.225L185.562 207.308L185.55 207.329L185.508 207.371C185.471 207.4 185.454 207.404 185.425 207.417C185.039 207.563 184.647 207.692 184.25 207.804C183.367 208.061 182.459 208.222 181.542 208.283C181.108 208.311 180.672 208.273 180.25 208.171C179.883 208.09 179.56 207.876 179.342 207.571C179.142 207.262 179.083 206.85 179.196 206.342C179.285 205.98 179.418 205.63 179.592 205.3L166.271 215.825H183.987L186.104 213.4C189.012 210.008 190.337 207.583 190.337 205.508V203.746Z" fill="#B522A6"/>
</svg>
