<svg width="352" height="407" viewBox="0 0 352 407" fill="none" xmlns="http://www.w3.org/2000/svg">
<rect width="352" height="407" rx="20" fill="white"/>
<rect x="16" y="15" width="320" height="179" rx="20" fill="#38BDF8"/>
<path d="M100.932 304.034V300.909H122.75V304.034H113.602V330H110.08V304.034H100.932ZM131.184 330.511C129.801 330.511 128.547 330.251 127.42 329.73C126.293 329.2 125.398 328.438 124.735 327.443C124.072 326.439 123.741 325.227 123.741 323.807C123.741 322.557 123.987 321.544 124.479 320.767C124.972 319.981 125.63 319.366 126.454 318.92C127.278 318.475 128.187 318.144 129.181 317.926C130.185 317.699 131.193 317.519 132.207 317.386C133.532 317.216 134.607 317.088 135.431 317.003C136.264 316.908 136.871 316.752 137.249 316.534C137.638 316.316 137.832 315.937 137.832 315.398V315.284C137.832 313.883 137.448 312.794 136.681 312.017C135.924 311.241 134.773 310.852 133.229 310.852C131.629 310.852 130.374 311.203 129.465 311.903C128.556 312.604 127.917 313.352 127.548 314.148L124.366 313.011C124.934 311.686 125.692 310.653 126.638 309.915C127.595 309.167 128.637 308.646 129.763 308.352C130.9 308.049 132.017 307.898 133.116 307.898C133.817 307.898 134.621 307.983 135.531 308.153C136.449 308.314 137.335 308.651 138.187 309.162C139.049 309.673 139.763 310.445 140.332 311.477C140.9 312.509 141.184 313.892 141.184 315.625V330H137.832V327.045H137.661C137.434 327.519 137.055 328.026 136.525 328.565C135.995 329.105 135.289 329.564 134.408 329.943C133.528 330.322 132.453 330.511 131.184 330.511ZM131.695 327.5C133.021 327.5 134.138 327.24 135.048 326.719C135.966 326.198 136.657 325.526 137.121 324.702C137.595 323.878 137.832 323.011 137.832 322.102V319.034C137.69 319.205 137.377 319.361 136.894 319.503C136.421 319.635 135.871 319.754 135.246 319.858C134.631 319.953 134.03 320.038 133.442 320.114C132.865 320.18 132.396 320.237 132.036 320.284C131.165 320.398 130.351 320.582 129.593 320.838C128.845 321.084 128.239 321.458 127.775 321.96C127.32 322.453 127.093 323.125 127.093 323.977C127.093 325.142 127.524 326.023 128.386 326.619C129.257 327.206 130.36 327.5 131.695 327.5ZM147.303 330V308.182H150.655V330H147.303ZM149.007 304.545C148.354 304.545 147.79 304.323 147.317 303.878C146.853 303.433 146.621 302.898 146.621 302.273C146.621 301.648 146.853 301.113 147.317 300.668C147.79 300.223 148.354 300 149.007 300C149.661 300 150.219 300.223 150.683 300.668C151.157 301.113 151.393 301.648 151.393 302.273C151.393 302.898 151.157 303.433 150.683 303.878C150.219 304.323 149.661 304.545 149.007 304.545ZM160.147 300.909V330H156.795V300.909H160.147ZM171.23 330L164.582 308.182H168.105L172.821 324.886H173.048L177.707 308.182H181.287L185.889 324.83H186.116L190.832 308.182H194.355L187.707 330H184.412L179.639 313.239H179.298L174.526 330H171.23ZM198.787 330V308.182H202.139V330H198.787ZM200.491 304.545C199.838 304.545 199.275 304.323 198.801 303.878C198.337 303.433 198.105 302.898 198.105 302.273C198.105 301.648 198.337 301.113 198.801 300.668C199.275 300.223 199.838 300 200.491 300C201.145 300 201.704 300.223 202.168 300.668C202.641 301.113 202.878 301.648 202.878 302.273C202.878 302.898 202.641 303.433 202.168 303.878C201.704 304.323 201.145 304.545 200.491 304.545ZM211.631 316.875V330H208.279V308.182H211.518V311.591H211.802C212.313 310.483 213.09 309.593 214.131 308.92C215.173 308.239 216.518 307.898 218.165 307.898C219.643 307.898 220.935 308.201 222.043 308.807C223.151 309.403 224.013 310.312 224.629 311.534C225.244 312.746 225.552 314.28 225.552 316.136V330H222.2V316.364C222.2 314.65 221.754 313.314 220.864 312.358C219.974 311.392 218.753 310.909 217.2 310.909C216.129 310.909 215.173 311.141 214.33 311.605C213.497 312.069 212.839 312.746 212.356 313.636C211.873 314.527 211.631 315.606 211.631 316.875ZM239.916 330.455C238.098 330.455 236.493 329.995 235.101 329.077C233.709 328.149 232.62 326.842 231.834 325.156C231.048 323.461 230.655 321.458 230.655 319.148C230.655 316.856 231.048 314.867 231.834 313.182C232.62 311.496 233.714 310.194 235.115 309.276C236.517 308.357 238.136 307.898 239.973 307.898C241.393 307.898 242.516 308.134 243.339 308.608C244.173 309.072 244.807 309.602 245.243 310.199C245.688 310.786 246.034 311.269 246.28 311.648H246.564V300.909H249.916V330H246.678V326.648H246.28C246.034 327.045 245.683 327.547 245.229 328.153C244.774 328.75 244.125 329.285 243.283 329.759C242.44 330.223 241.318 330.455 239.916 330.455ZM240.371 327.443C241.715 327.443 242.852 327.093 243.78 326.392C244.708 325.682 245.413 324.702 245.896 323.452C246.379 322.192 246.621 320.739 246.621 319.091C246.621 317.462 246.384 316.037 245.911 314.815C245.437 313.584 244.736 312.628 243.808 311.946C242.88 311.255 241.734 310.909 240.371 310.909C238.95 310.909 237.767 311.274 236.82 312.003C235.882 312.723 235.177 313.703 234.703 314.943C234.239 316.174 234.007 317.557 234.007 319.091C234.007 320.644 234.244 322.055 234.717 323.324C235.2 324.583 235.911 325.587 236.848 326.335C237.795 327.074 238.969 327.443 240.371 327.443Z" fill="#131212"/>
<rect x="116" y="134" width="120" height="120" rx="60" fill="white"/>
<g clip-path="url(#clip0_308_503)">
<path d="M176.003 167.001C164.003 167.001 156.505 172.999 153.503 184.999C158.002 179.001 163.253 176.752 169.252 178.251C172.676 179.105 175.124 181.588 177.835 184.34C182.246 188.817 187.352 194 198.503 194C210.502 194 218.001 188.002 221.003 175.999C216.504 182 211.253 184.25 205.254 182.75C201.829 181.896 199.385 179.413 196.671 176.661C192.262 172.184 187.157 167.001 176.003 167.001ZM153.503 194C141.503 194 134.005 199.998 131.003 212.001C135.502 206 140.752 203.75 146.752 205.25C150.176 206.104 152.624 208.587 155.335 211.339C159.746 215.816 164.852 220.999 176.003 220.999C188.002 220.999 195.501 215.001 198.503 203.001C194.004 208.999 188.753 211.248 182.754 209.749C179.329 208.895 176.885 206.412 174.171 203.66C169.762 199.183 164.657 194 153.503 194Z" fill="#38BDF8"/>
</g>
<defs>
<clipPath id="clip0_308_503">
<rect width="90" height="90" fill="white" transform="translate(131 149)"/>
</clipPath>
</defs>
</svg>
