<svg width="352" height="407" viewBox="0 0 352 407" fill="none" xmlns="http://www.w3.org/2000/svg">
<rect width="352" height="407" rx="20" fill="white"/>
<rect x="16" y="15" width="320" height="179" rx="20" fill="#007ACC"/>
<circle cx="176" cy="188" r="60" fill="black"/>
<g clip-path="url(#clip0_308_499)">
<path fill-rule="evenodd" clip-rule="evenodd" d="M116 128H236V248H116V128ZM196 176C191.757 176 187.687 177.686 184.686 180.686C181.686 183.687 180 187.757 180 192C180 196.243 181.686 200.313 184.686 203.314C187.687 206.314 191.757 208 196 208H204C206.122 208 208.157 208.843 209.657 210.343C211.157 211.843 212 213.878 212 216C212 218.122 211.157 220.157 209.657 221.657C208.157 223.157 206.122 224 204 224H196C193.878 224 191.843 223.157 190.343 221.657C188.843 220.157 188 218.122 188 216H180C180 220.243 181.686 224.313 184.686 227.314C187.687 230.314 191.757 232 196 232H204C208.243 232 212.313 230.314 215.314 227.314C218.314 224.313 220 220.243 220 216C220 211.757 218.314 207.687 215.314 204.686C212.313 201.686 208.243 200 204 200H196C193.878 200 191.843 199.157 190.343 197.657C188.843 196.157 188 194.122 188 192C188 189.878 188.843 187.843 190.343 186.343C191.843 184.843 193.878 184 196 184H205.336C209.016 184 212 186.984 212 190.664V192H220V190.664C220 182.568 213.44 176 205.336 176H196ZM140 176H180V184H164V232H156V184H140V176Z" fill="white"/>
</g>
<path d="M77.9318 304.034V300.909H99.75V304.034H90.6023V330H87.0795V304.034H77.9318ZM104.391 338.182C103.823 338.182 103.317 338.134 102.871 338.04C102.426 337.955 102.119 337.869 101.948 337.784L102.8 334.83C103.615 335.038 104.335 335.114 104.96 335.057C105.585 335 106.138 334.721 106.621 334.219C107.114 333.726 107.564 332.926 107.971 331.818L108.596 330.114L100.528 308.182H104.164L110.187 325.568H110.414L116.437 308.182H120.073L110.812 333.182C110.395 334.309 109.879 335.241 109.263 335.98C108.648 336.728 107.933 337.282 107.119 337.642C106.314 338.002 105.405 338.182 104.391 338.182ZM124.498 338.182V308.182H127.737V311.648H128.134C128.38 311.269 128.721 310.786 129.157 310.199C129.602 309.602 130.237 309.072 131.06 308.608C131.894 308.134 133.021 307.898 134.441 307.898C136.278 307.898 137.897 308.357 139.299 309.276C140.701 310.194 141.794 311.496 142.58 313.182C143.366 314.867 143.759 316.856 143.759 319.148C143.759 321.458 143.366 323.461 142.58 325.156C141.794 326.842 140.705 328.149 139.313 329.077C137.921 329.995 136.316 330.455 134.498 330.455C133.096 330.455 131.974 330.223 131.131 329.759C130.289 329.285 129.64 328.75 129.185 328.153C128.731 327.547 128.38 327.045 128.134 326.648H127.85V338.182H124.498ZM127.793 319.091C127.793 320.739 128.035 322.192 128.518 323.452C129.001 324.702 129.706 325.682 130.634 326.392C131.562 327.093 132.699 327.443 134.043 327.443C135.445 327.443 136.614 327.074 137.552 326.335C138.499 325.587 139.209 324.583 139.683 323.324C140.165 322.055 140.407 320.644 140.407 319.091C140.407 317.557 140.17 316.174 139.697 314.943C139.233 313.703 138.527 312.723 137.58 312.003C136.643 311.274 135.464 310.909 134.043 310.909C132.68 310.909 131.534 311.255 130.606 311.946C129.678 312.628 128.977 313.584 128.504 314.815C128.03 316.037 127.793 317.462 127.793 319.091ZM158.021 330.455C155.918 330.455 154.105 329.991 152.58 329.062C151.065 328.125 149.896 326.818 149.072 325.142C148.257 323.456 147.85 321.496 147.85 319.261C147.85 317.027 148.257 315.057 149.072 313.352C149.896 311.638 151.041 310.303 152.509 309.347C153.987 308.381 155.71 307.898 157.68 307.898C158.816 307.898 159.938 308.087 161.046 308.466C162.154 308.845 163.163 309.46 164.072 310.312C164.981 311.155 165.705 312.273 166.245 313.665C166.785 315.057 167.055 316.771 167.055 318.807V320.227H150.237V317.33H163.646C163.646 316.098 163.399 315 162.907 314.034C162.424 313.068 161.733 312.306 160.833 311.747C159.943 311.188 158.892 310.909 157.68 310.909C156.344 310.909 155.189 311.241 154.214 311.903C153.248 312.557 152.504 313.409 151.984 314.46C151.463 315.511 151.202 316.638 151.202 317.841V319.773C151.202 321.42 151.487 322.817 152.055 323.963C152.632 325.099 153.433 325.966 154.455 326.562C155.478 327.15 156.666 327.443 158.021 327.443C158.901 327.443 159.697 327.32 160.407 327.074C161.127 326.818 161.747 326.439 162.268 325.938C162.789 325.426 163.191 324.792 163.475 324.034L166.714 324.943C166.373 326.042 165.8 327.008 164.995 327.841C164.19 328.665 163.196 329.309 162.012 329.773C160.828 330.227 159.498 330.455 158.021 330.455ZM187.609 313.068L184.597 313.92C184.408 313.419 184.129 312.931 183.759 312.457C183.399 311.974 182.907 311.577 182.282 311.264C181.657 310.952 180.857 310.795 179.881 310.795C178.546 310.795 177.433 311.103 176.543 311.719C175.663 312.325 175.222 313.097 175.222 314.034C175.222 314.867 175.525 315.526 176.131 316.009C176.737 316.491 177.684 316.894 178.972 317.216L182.211 318.011C184.162 318.485 185.615 319.209 186.572 320.185C187.528 321.151 188.006 322.396 188.006 323.92C188.006 325.17 187.647 326.288 186.927 327.273C186.217 328.258 185.222 329.034 183.944 329.602C182.665 330.17 181.179 330.455 179.484 330.455C177.258 330.455 175.416 329.972 173.958 329.006C172.5 328.04 171.576 326.629 171.188 324.773L174.37 323.977C174.673 325.152 175.246 326.032 176.089 326.619C176.941 327.206 178.054 327.5 179.427 327.5C180.989 327.5 182.23 327.169 183.148 326.506C184.076 325.833 184.54 325.028 184.54 324.091C184.54 323.333 184.275 322.699 183.745 322.188C183.215 321.667 182.4 321.278 181.302 321.023L177.665 320.17C175.667 319.697 174.2 318.963 173.262 317.969C172.334 316.965 171.87 315.71 171.87 314.205C171.87 312.973 172.216 311.884 172.907 310.938C173.608 309.991 174.559 309.247 175.762 308.707C176.974 308.168 178.347 307.898 179.881 307.898C182.04 307.898 183.736 308.371 184.967 309.318C186.207 310.265 187.088 311.515 187.609 313.068ZM201.916 330.455C199.871 330.455 198.109 329.972 196.632 329.006C195.155 328.04 194.018 326.709 193.223 325.014C192.428 323.319 192.03 321.383 192.03 319.205C192.03 316.989 192.437 315.033 193.251 313.338C194.075 311.634 195.221 310.303 196.689 309.347C198.166 308.381 199.89 307.898 201.859 307.898C203.393 307.898 204.776 308.182 206.007 308.75C207.238 309.318 208.247 310.114 209.033 311.136C209.819 312.159 210.306 313.352 210.496 314.716H207.143C206.888 313.722 206.32 312.841 205.439 312.074C204.568 311.297 203.393 310.909 201.916 310.909C200.609 310.909 199.464 311.25 198.479 311.932C197.503 312.604 196.741 313.556 196.192 314.787C195.652 316.009 195.382 317.443 195.382 319.091C195.382 320.777 195.647 322.244 196.178 323.494C196.717 324.744 197.475 325.715 198.45 326.406C199.435 327.098 200.59 327.443 201.916 327.443C202.787 327.443 203.578 327.292 204.288 326.989C204.999 326.686 205.6 326.25 206.092 325.682C206.585 325.114 206.935 324.432 207.143 323.636H210.496C210.306 324.924 209.838 326.084 209.089 327.116C208.351 328.139 207.371 328.954 206.149 329.56C204.937 330.156 203.526 330.455 201.916 330.455ZM215.396 330V308.182H218.635V311.477H218.862C219.26 310.398 219.98 309.522 221.021 308.849C222.063 308.177 223.237 307.841 224.544 307.841C224.79 307.841 225.098 307.846 225.467 307.855C225.837 307.865 226.116 307.879 226.305 307.898V311.307C226.192 311.278 225.931 311.236 225.524 311.179C225.126 311.113 224.705 311.08 224.26 311.08C223.199 311.08 222.252 311.302 221.419 311.747C220.595 312.183 219.942 312.789 219.459 313.565C218.985 314.332 218.749 315.208 218.749 316.193V330H215.396ZM230.279 330V308.182H233.631V330H230.279ZM231.984 304.545C231.33 304.545 230.767 304.323 230.293 303.878C229.829 303.433 229.597 302.898 229.597 302.273C229.597 301.648 229.829 301.113 230.293 300.668C230.767 300.223 231.33 300 231.984 300C232.637 300 233.196 300.223 233.66 300.668C234.133 301.113 234.37 301.648 234.37 302.273C234.37 302.898 234.133 303.433 233.66 303.878C233.196 304.323 232.637 304.545 231.984 304.545ZM239.771 338.182V308.182H243.01V311.648H243.408C243.654 311.269 243.995 310.786 244.43 310.199C244.875 309.602 245.51 309.072 246.334 308.608C247.167 308.134 248.294 307.898 249.714 307.898C251.552 307.898 253.171 308.357 254.572 309.276C255.974 310.194 257.068 311.496 257.854 313.182C258.64 314.867 259.033 316.856 259.033 319.148C259.033 321.458 258.64 323.461 257.854 325.156C257.068 326.842 255.979 328.149 254.587 329.077C253.195 329.995 251.589 330.455 249.771 330.455C248.37 330.455 247.248 330.223 246.405 329.759C245.562 329.285 244.913 328.75 244.459 328.153C244.004 327.547 243.654 327.045 243.408 326.648H243.124V338.182H239.771ZM243.067 319.091C243.067 320.739 243.308 322.192 243.791 323.452C244.274 324.702 244.98 325.682 245.908 326.392C246.836 327.093 247.972 327.443 249.317 327.443C250.718 327.443 251.888 327.074 252.825 326.335C253.772 325.587 254.482 324.583 254.956 323.324C255.439 322.055 255.68 320.644 255.68 319.091C255.68 317.557 255.444 316.174 254.97 314.943C254.506 313.703 253.801 312.723 252.854 312.003C251.916 311.274 250.737 310.909 249.317 310.909C247.953 310.909 246.807 311.255 245.879 311.946C244.951 312.628 244.25 313.584 243.777 314.815C243.304 316.037 243.067 317.462 243.067 319.091ZM273.635 308.182V311.023H262.328V308.182H273.635ZM265.624 302.955H268.976V323.75C268.976 324.697 269.113 325.407 269.388 325.881C269.672 326.345 270.032 326.657 270.467 326.818C270.912 326.97 271.381 327.045 271.874 327.045C272.243 327.045 272.546 327.027 272.783 326.989C273.019 326.941 273.209 326.903 273.351 326.875L274.033 329.886C273.805 329.972 273.488 330.057 273.081 330.142C272.674 330.237 272.158 330.284 271.533 330.284C270.586 330.284 269.658 330.08 268.749 329.673C267.849 329.266 267.101 328.646 266.504 327.812C265.917 326.979 265.624 325.928 265.624 324.659V302.955Z" fill="#131212"/>
<defs>
<clipPath id="clip0_308_499">
<rect x="116" y="128" width="120" height="120" rx="60" fill="white"/>
</clipPath>
</defs>
</svg>
