<svg width="76" height="60" viewBox="0 0 76 60" fill="none" xmlns="http://www.w3.org/2000/svg">
<path d="M1.82783 25.4026C0.657414 26.5745 0 28.163 0 29.8193C0 31.4755 0.657414 33.0641 1.82783 34.2359L25.3945 57.8109C25.9751 58.3915 26.6643 58.852 27.4228 59.1662C28.1813 59.4804 28.9943 59.6421 29.8153 59.6421C30.6364 59.6421 31.4493 59.4804 32.2079 59.1662C32.9664 58.852 33.6556 58.3915 34.2362 57.8109C34.8167 57.2304 35.2772 56.5412 35.5914 55.7826C35.9056 55.0241 36.0673 54.2111 36.0673 53.3901C36.0673 52.5691 35.9056 51.7561 35.5914 50.9976C35.2772 50.239 34.8167 49.5498 34.2362 48.9693L21.3362 36.0693H69.3987C71.0563 36.0693 72.646 35.4108 73.8181 34.2387C74.9902 33.0666 75.6487 31.4769 75.6487 29.8193C75.6487 28.1617 74.9902 26.572 73.8181 25.3999C72.646 24.2278 71.0563 23.5693 69.3987 23.5693H21.3362L34.2362 10.6693C35.4081 9.4968 36.0663 7.9068 36.0659 6.24906C36.0655 4.59131 35.4066 3.00162 34.2341 1.8297C33.0616 0.65777 31.4716 -0.000390527 29.8139 1.73848e-07C28.1561 0.000390875 26.5664 0.659302 25.3945 1.83178L1.82783 25.4026Z" fill="#DA3636"/>
</svg>
