<svg width="35" height="39" viewBox="0 0 35 39" fill="none" xmlns="http://www.w3.org/2000/svg">
<path d="M17.5 19.9726C17.0815 19.9726 16.6765 19.8964 16.2852 19.7439C15.8918 19.5915 15.5643 19.3882 15.3027 19.1341L0.863227 5.10751C0.287742 4.54848 0 3.83698 0 2.97302C0 2.10907 0.287742 1.39758 0.863227 0.838545C1.43871 0.279514 2.17115 0 3.06054 0C3.94992 0 4.68236 0.279514 5.25785 0.838545L17.5 12.7306L29.7421 0.838545C30.3176 0.279514 31.0501 0 31.9395 0C32.8288 0 33.5613 0.279514 34.1368 0.838545C34.7123 1.39758 35 2.10907 35 2.97302C35 3.83698 34.7123 4.54848 34.1368 5.10751L19.6973 19.1341C19.3834 19.439 19.0433 19.6545 18.6771 19.7805C18.3109 19.9086 17.9185 19.9726 17.5 19.9726Z" fill="white"/>
<path d="M17.5 39C17.0815 39 16.6765 38.9237 16.2852 38.7713C15.8918 38.6188 15.5643 38.4155 15.3027 38.1614L0.863227 24.1349C0.287742 23.5758 0 22.8643 0 22.0004C0 21.1364 0.287742 20.4249 0.863227 19.8659C1.43871 19.3069 2.17115 19.0273 3.06054 19.0273C3.94992 19.0273 4.68236 19.3069 5.25785 19.8659L17.5 31.758L29.7421 19.8659C30.3176 19.3069 31.0501 19.0273 31.9395 19.0273C32.8288 19.0273 33.5613 19.3069 34.1368 19.8659C34.7123 20.4249 35 21.1364 35 22.0004C35 22.8643 34.7123 23.5758 34.1368 24.1349L19.6973 38.1614C19.3834 38.4664 19.0433 38.6818 18.6771 38.8079C18.3109 38.9359 17.9185 39 17.5 39Z" fill="#FF3947"/>
</svg>
