<svg width="42" height="42" viewBox="0 0 42 42" fill="none" xmlns="http://www.w3.org/2000/svg">
<path fill-rule="evenodd" clip-rule="evenodd" d="M12.1219 0.12375C14.3212 0.0225 15.0225 0 20.625 0C26.2275 0 26.9288 0.024375 29.1263 0.12375C31.3238 0.223125 32.8237 0.57375 34.1362 1.08188C35.5106 1.60125 36.7575 2.41312 37.7887 3.46312C38.8387 4.4925 39.6488 5.7375 40.1663 7.11375C40.6763 8.42625 41.025 9.92625 41.1263 12.12C41.2275 14.3231 41.25 15.0244 41.25 20.625C41.25 26.2275 41.2256 26.9287 41.1263 29.1281C41.0269 31.3219 40.6763 32.8219 40.1663 34.1344C39.6487 35.5108 38.8374 36.7579 37.7887 37.7887C36.7575 38.8387 35.5106 39.6488 34.1362 40.1663C32.8237 40.6763 31.3237 41.025 29.13 41.1263C26.9287 41.2275 26.2275 41.25 20.625 41.25C15.0225 41.25 14.3212 41.2256 12.1219 41.1263C9.92813 41.0269 8.42813 40.6763 7.11563 40.1663C5.73923 39.6487 4.49216 38.8374 3.46125 37.7887C2.41196 36.7588 1.59997 35.5123 1.08188 34.1362C0.57375 32.8237 0.225 31.3237 0.12375 29.13C0.0225 26.9269 0 26.2256 0 20.625C0 15.0225 0.024375 14.3212 0.12375 12.1237C0.223125 9.92625 0.57375 8.42625 1.08188 7.11375C1.60073 5.73765 2.41335 4.49121 3.46312 3.46125C4.49258 2.41219 5.73839 1.60021 7.11375 1.08188C8.42625 0.57375 9.92813 0.225 12.1219 0.12375ZM28.9594 3.83625C26.7844 3.73688 26.1319 3.71625 20.625 3.71625C15.1181 3.71625 14.4656 3.73688 12.2906 3.83625C10.2787 3.92812 9.1875 4.26375 8.46 4.54688C7.49813 4.92188 6.81 5.36625 6.08813 6.08813C5.40383 6.75385 4.87721 7.56428 4.54688 8.46C4.26375 9.1875 3.92812 10.2787 3.83625 12.2906C3.73688 14.4656 3.71625 15.1181 3.71625 20.625C3.71625 26.1319 3.73688 26.7844 3.83625 28.9594C3.92812 30.9712 4.26375 32.0625 4.54688 32.79C4.87687 33.6844 5.40375 34.4963 6.08813 35.1619C6.75375 35.8462 7.56563 36.3731 8.46 36.7031C9.1875 36.9863 10.2787 37.3219 12.2906 37.4137C14.4656 37.5131 15.1163 37.5337 20.625 37.5337C26.1337 37.5337 26.7844 37.5131 28.9594 37.4137C30.9712 37.3219 32.0625 36.9863 32.79 36.7031C33.7519 36.3281 34.44 35.8838 35.1619 35.1619C35.8462 34.4963 36.3731 33.6844 36.7031 32.79C36.9863 32.0625 37.3219 30.9712 37.4137 28.9594C37.5131 26.7844 37.5337 26.1319 37.5337 20.625C37.5337 15.1181 37.5131 14.4656 37.4137 12.2906C37.3219 10.2787 36.9863 9.1875 36.7031 8.46C36.3281 7.49813 35.8838 6.81 35.1619 6.08813C34.4961 5.40388 33.6857 4.87727 32.79 4.54688C32.0625 4.26375 30.9712 3.92812 28.9594 3.83625ZM17.9906 26.9831C19.4619 27.5956 21.1001 27.6782 22.6255 27.217C24.1509 26.7557 25.4689 25.7792 26.3543 24.4542C27.2397 23.1292 27.6376 21.5379 27.4801 19.9521C27.3226 18.3663 26.6194 16.8843 25.4906 15.7594C24.7711 15.0403 23.901 14.4896 22.9431 14.1472C21.9852 13.8047 20.9633 13.6788 19.9509 13.7787C18.9386 13.8785 17.9609 14.2016 17.0884 14.7246C16.2159 15.2477 15.4701 15.9576 14.9049 16.8035C14.3397 17.6493 13.9691 18.6099 13.8197 19.6162C13.6703 20.6224 13.7459 21.6493 14.041 22.6228C14.3361 23.5964 14.8434 24.4924 15.5264 25.2464C16.2093 26.0003 17.0509 26.5935 17.9906 26.9831ZM13.1287 13.1287C14.1132 12.1443 15.2818 11.3634 16.5681 10.8307C17.8543 10.2979 19.2328 10.0237 20.625 10.0237C22.0172 10.0237 23.3957 10.2979 24.6819 10.8307C25.9681 11.3634 27.1368 12.1443 28.1213 13.1287C29.1057 14.1132 29.8866 15.2818 30.4193 16.5681C30.9521 17.8543 31.2263 19.2328 31.2263 20.625C31.2263 22.0172 30.9521 23.3957 30.4193 24.6819C29.8866 25.9681 29.1057 27.1368 28.1213 28.1213C26.1331 30.1094 23.4366 31.2263 20.625 31.2263C17.8134 31.2263 15.1169 30.1094 13.1287 28.1213C11.1406 26.1331 10.0237 23.4366 10.0237 20.625C10.0237 17.8134 11.1406 15.1169 13.1287 13.1287ZM33.5775 11.6025C33.8214 11.3724 34.0167 11.0957 34.1518 10.7887C34.2869 10.4818 34.359 10.1508 34.3639 9.81549C34.3688 9.48017 34.3064 9.14728 34.1803 8.83652C34.0542 8.52576 33.8671 8.24346 33.6299 8.00632C33.3928 7.76919 33.1105 7.58205 32.7997 7.45597C32.489 7.3299 32.1561 7.26745 31.8208 7.27234C31.4854 7.27723 31.1545 7.34935 30.8475 7.48443C30.5406 7.61951 30.2639 7.8148 30.0337 8.05875C29.5862 8.53318 29.3412 9.16335 29.3507 9.81549C29.3602 10.4676 29.6235 11.0904 30.0847 11.5516C30.5459 12.0128 31.1686 12.2761 31.8208 12.2856C32.4729 12.2951 33.1031 12.05 33.5775 11.6025Z" fill="white"/>
</svg>
