<svg width="208" height="45" viewBox="0 0 208 45" fill="none" xmlns="http://www.w3.org/2000/svg">
<path d="M64.8003 28.3022L70.0371 13.2266H72.5884L66.0088 31H64.1899L64.8003 28.3022ZM59.9053 13.2266L65.0933 28.3022L65.7402 31H63.9214L57.354 13.2266H59.9053ZM73.4795 24.5425V24.2617C73.4795 23.3096 73.6178 22.4266 73.8945 21.6128C74.1712 20.7909 74.57 20.0788 75.0908 19.4766C75.6117 18.8662 76.2424 18.3942 76.9829 18.0605C77.7235 17.7188 78.5535 17.5479 79.4731 17.5479C80.4009 17.5479 81.235 17.7188 81.9756 18.0605C82.7243 18.3942 83.359 18.8662 83.8799 19.4766C84.4089 20.0788 84.8117 20.7909 85.0884 21.6128C85.3651 22.4266 85.5034 23.3096 85.5034 24.2617V24.5425C85.5034 25.4946 85.3651 26.3776 85.0884 27.1914C84.8117 28.0052 84.4089 28.7173 83.8799 29.3276C83.359 29.9299 82.7284 30.4019 81.9878 30.7437C81.2554 31.0773 80.4253 31.2441 79.4976 31.2441C78.5698 31.2441 77.7357 31.0773 76.9951 30.7437C76.2546 30.4019 75.6198 29.9299 75.0908 29.3276C74.57 28.7173 74.1712 28.0052 73.8945 27.1914C73.6178 26.3776 73.4795 25.4946 73.4795 24.5425ZM75.7378 24.2617V24.5425C75.7378 25.2017 75.8151 25.8242 75.9697 26.4102C76.1243 26.988 76.3563 27.5007 76.6655 27.9482C76.9829 28.3958 77.3776 28.7498 77.8496 29.0103C78.3216 29.2625 78.8709 29.3887 79.4976 29.3887C80.116 29.3887 80.6572 29.2625 81.1211 29.0103C81.5931 28.7498 81.9837 28.3958 82.293 27.9482C82.6022 27.5007 82.8341 26.988 82.9888 26.4102C83.1515 25.8242 83.2329 25.2017 83.2329 24.5425V24.2617C83.2329 23.6107 83.1515 22.9963 82.9888 22.4185C82.8341 21.8325 82.5981 21.3158 82.2808 20.8682C81.9715 20.4124 81.5809 20.0544 81.1089 19.7939C80.645 19.5335 80.0998 19.4033 79.4731 19.4033C78.8547 19.4033 78.3094 19.5335 77.8374 19.7939C77.3735 20.0544 76.9829 20.4124 76.6655 20.8682C76.3563 21.3158 76.1243 21.8325 75.9697 22.4185C75.8151 22.9963 75.7378 23.6107 75.7378 24.2617ZM88.3965 17.792H90.667V32.5747C90.667 33.3804 90.5368 34.064 90.2764 34.6255C90.0241 35.187 89.6416 35.6102 89.1289 35.895C88.6243 36.188 87.9855 36.3345 87.2124 36.3345C87.009 36.3345 86.7729 36.3141 86.5044 36.2734C86.2277 36.2327 85.9958 36.1839 85.8086 36.127L85.8208 34.3081C85.9754 34.3407 86.1504 34.3651 86.3457 34.3813C86.541 34.4058 86.7119 34.418 86.8584 34.418C87.1921 34.418 87.4728 34.3569 87.7007 34.2349C87.9285 34.1128 88.0994 33.9175 88.2134 33.6489C88.3354 33.3804 88.3965 33.0223 88.3965 32.5747V17.792ZM88.1646 14.2886C88.1646 13.9224 88.2785 13.6131 88.5063 13.3608C88.7342 13.1086 89.0638 12.9824 89.4951 12.9824C89.9346 12.9824 90.2682 13.1086 90.4961 13.3608C90.724 13.6131 90.8379 13.9224 90.8379 14.2886C90.8379 14.6385 90.724 14.9396 90.4961 15.1919C90.2682 15.436 89.9346 15.5581 89.4951 15.5581C89.0638 15.5581 88.7342 15.436 88.5063 15.1919C88.2785 14.9396 88.1646 14.6385 88.1646 14.2886ZM96.7705 17.792V31H94.5V17.792H96.7705ZM94.3291 14.2886C94.3291 13.9224 94.439 13.6131 94.6587 13.3608C94.8866 13.1086 95.2202 12.9824 95.6597 12.9824C96.091 12.9824 96.4206 13.1086 96.6484 13.3608C96.8844 13.6131 97.0024 13.9224 97.0024 14.2886C97.0024 14.6385 96.8844 14.9396 96.6484 15.1919C96.4206 15.436 96.091 15.5581 95.6597 15.5581C95.2202 15.5581 94.8866 15.436 94.6587 15.1919C94.439 14.9396 94.3291 14.6385 94.3291 14.2886ZM102.654 20.6118V31H100.396V17.792H102.532L102.654 20.6118ZM102.117 23.8955L101.177 23.8589C101.185 22.9556 101.32 22.1214 101.58 21.3564C101.84 20.5833 102.207 19.9119 102.679 19.3423C103.151 18.7726 103.712 18.3332 104.363 18.0239C105.022 17.7065 105.751 17.5479 106.548 17.5479C107.199 17.5479 107.785 17.6374 108.306 17.8164C108.827 17.9873 109.271 18.264 109.637 18.6465C110.011 19.029 110.296 19.5254 110.491 20.1357C110.687 20.738 110.784 21.4744 110.784 22.3452V31H108.514V22.3208C108.514 21.6291 108.412 21.0757 108.208 20.6606C108.005 20.2375 107.708 19.9323 107.317 19.7451C106.927 19.5498 106.447 19.4521 105.877 19.4521C105.315 19.4521 104.803 19.5701 104.339 19.8062C103.883 20.0422 103.488 20.3677 103.155 20.7827C102.829 21.1978 102.573 21.6738 102.386 22.2109C102.207 22.7399 102.117 23.3014 102.117 23.8955Z" fill="#FF3947"/>
<path d="M127.312 24.0298H122.564V22.1133H127.312C128.232 22.1133 128.977 21.9668 129.546 21.6738C130.116 21.3809 130.531 20.974 130.792 20.4531C131.06 19.9323 131.194 19.3382 131.194 18.6709C131.194 18.0605 131.06 17.4868 130.792 16.9497C130.531 16.4126 130.116 15.9813 129.546 15.6558C128.977 15.3221 128.232 15.1553 127.312 15.1553H123.113V31H120.757V13.2266H127.312C128.655 13.2266 129.791 13.4585 130.718 13.9224C131.646 14.3862 132.35 15.0291 132.83 15.8511C133.31 16.6649 133.55 17.5967 133.55 18.6465C133.55 19.7858 133.31 20.7583 132.83 21.564C132.35 22.3696 131.646 22.984 130.718 23.4072C129.791 23.8223 128.655 24.0298 127.312 24.0298ZM135.418 24.5425V24.2617C135.418 23.3096 135.556 22.4266 135.833 21.6128C136.11 20.7909 136.508 20.0788 137.029 19.4766C137.55 18.8662 138.181 18.3942 138.921 18.0605C139.662 17.7188 140.492 17.5479 141.412 17.5479C142.339 17.5479 143.174 17.7188 143.914 18.0605C144.663 18.3942 145.298 18.8662 145.818 19.4766C146.347 20.0788 146.75 20.7909 147.027 21.6128C147.304 22.4266 147.442 23.3096 147.442 24.2617V24.5425C147.442 25.4946 147.304 26.3776 147.027 27.1914C146.75 28.0052 146.347 28.7173 145.818 29.3276C145.298 29.9299 144.667 30.4019 143.926 30.7437C143.194 31.0773 142.364 31.2441 141.436 31.2441C140.508 31.2441 139.674 31.0773 138.934 30.7437C138.193 30.4019 137.558 29.9299 137.029 29.3276C136.508 28.7173 136.11 28.0052 135.833 27.1914C135.556 26.3776 135.418 25.4946 135.418 24.5425ZM137.676 24.2617V24.5425C137.676 25.2017 137.754 25.8242 137.908 26.4102C138.063 26.988 138.295 27.5007 138.604 27.9482C138.921 28.3958 139.316 28.7498 139.788 29.0103C140.26 29.2625 140.809 29.3887 141.436 29.3887C142.055 29.3887 142.596 29.2625 143.06 29.0103C143.532 28.7498 143.922 28.3958 144.231 27.9482C144.541 27.5007 144.773 26.988 144.927 26.4102C145.09 25.8242 145.171 25.2017 145.171 24.5425V24.2617C145.171 23.6107 145.09 22.9963 144.927 22.4185C144.773 21.8325 144.537 21.3158 144.219 20.8682C143.91 20.4124 143.519 20.0544 143.047 19.7939C142.583 19.5335 142.038 19.4033 141.412 19.4033C140.793 19.4033 140.248 19.5335 139.776 19.7939C139.312 20.0544 138.921 20.4124 138.604 20.8682C138.295 21.3158 138.063 21.8325 137.908 22.4185C137.754 22.9963 137.676 23.6107 137.676 24.2617ZM152.532 20.3311V36.0781H150.262V17.792H152.337L152.532 20.3311ZM161.431 24.2861V24.5425C161.431 25.5028 161.317 26.3939 161.089 27.2158C160.861 28.0296 160.528 28.7376 160.088 29.3398C159.657 29.9421 159.124 30.41 158.489 30.7437C157.854 31.0773 157.126 31.2441 156.304 31.2441C155.466 31.2441 154.725 31.1058 154.083 30.8291C153.44 30.5524 152.894 30.1496 152.447 29.6206C151.999 29.0916 151.641 28.4569 151.373 27.7163C151.112 26.9757 150.933 26.1416 150.835 25.2139V23.8467C150.933 22.8701 151.116 21.9953 151.385 21.2222C151.653 20.4491 152.007 19.7899 152.447 19.2446C152.894 18.6912 153.436 18.2721 154.07 17.9873C154.705 17.6943 155.438 17.5479 156.268 17.5479C157.098 17.5479 157.834 17.7106 158.477 18.0361C159.12 18.3535 159.661 18.8092 160.101 19.4033C160.54 19.9974 160.87 20.7095 161.089 21.5396C161.317 22.3615 161.431 23.277 161.431 24.2861ZM159.161 24.5425V24.2861C159.161 23.627 159.091 23.0085 158.953 22.4307C158.815 21.8447 158.599 21.332 158.306 20.8926C158.021 20.445 157.655 20.0951 157.208 19.8428C156.76 19.5824 156.227 19.4521 155.608 19.4521C155.039 19.4521 154.542 19.5498 154.119 19.7451C153.704 19.9404 153.35 20.2049 153.057 20.5386C152.764 20.8641 152.524 21.2384 152.337 21.6616C152.158 22.0767 152.024 22.508 151.934 22.9556V26.1172C152.097 26.6868 152.325 27.224 152.618 27.7285C152.911 28.2249 153.301 28.6278 153.79 28.937C154.278 29.2381 154.892 29.3887 155.633 29.3887C156.243 29.3887 156.768 29.2625 157.208 29.0103C157.655 28.7498 158.021 28.3958 158.306 27.9482C158.599 27.5007 158.815 26.988 158.953 26.4102C159.091 25.8242 159.161 25.2017 159.161 24.5425ZM163.714 24.5425V24.2617C163.714 23.3096 163.852 22.4266 164.129 21.6128C164.406 20.7909 164.804 20.0788 165.325 19.4766C165.846 18.8662 166.477 18.3942 167.217 18.0605C167.958 17.7188 168.788 17.5479 169.708 17.5479C170.635 17.5479 171.469 17.7188 172.21 18.0605C172.959 18.3942 173.593 18.8662 174.114 19.4766C174.643 20.0788 175.046 20.7909 175.323 21.6128C175.599 22.4266 175.738 23.3096 175.738 24.2617V24.5425C175.738 25.4946 175.599 26.3776 175.323 27.1914C175.046 28.0052 174.643 28.7173 174.114 29.3276C173.593 29.9299 172.963 30.4019 172.222 30.7437C171.49 31.0773 170.66 31.2441 169.732 31.2441C168.804 31.2441 167.97 31.0773 167.229 30.7437C166.489 30.4019 165.854 29.9299 165.325 29.3276C164.804 28.7173 164.406 28.0052 164.129 27.1914C163.852 26.3776 163.714 25.4946 163.714 24.5425ZM165.972 24.2617V24.5425C165.972 25.2017 166.049 25.8242 166.204 26.4102C166.359 26.988 166.591 27.5007 166.9 27.9482C167.217 28.3958 167.612 28.7498 168.084 29.0103C168.556 29.2625 169.105 29.3887 169.732 29.3887C170.35 29.3887 170.892 29.2625 171.355 29.0103C171.827 28.7498 172.218 28.3958 172.527 27.9482C172.837 27.5007 173.069 26.988 173.223 26.4102C173.386 25.8242 173.467 25.2017 173.467 24.5425V24.2617C173.467 23.6107 173.386 22.9963 173.223 22.4185C173.069 21.8325 172.833 21.3158 172.515 20.8682C172.206 20.4124 171.815 20.0544 171.343 19.7939C170.879 19.5335 170.334 19.4033 169.708 19.4033C169.089 19.4033 168.544 19.5335 168.072 19.7939C167.608 20.0544 167.217 20.4124 166.9 20.8682C166.591 21.3158 166.359 21.8325 166.204 22.4185C166.049 22.9963 165.972 23.6107 165.972 24.2617ZM182.391 28.9614L186.004 17.792H188.311L183.562 31H182.049L182.391 28.9614ZM179.375 17.792L183.099 29.0225L183.355 31H181.841L177.056 17.792H179.375ZM192.938 17.792V31H190.667V17.792H192.938ZM190.496 14.2886C190.496 13.9224 190.606 13.6131 190.826 13.3608C191.054 13.1086 191.387 12.9824 191.827 12.9824C192.258 12.9824 192.588 13.1086 192.815 13.3608C193.051 13.6131 193.169 13.9224 193.169 14.2886C193.169 14.6385 193.051 14.9396 192.815 15.1919C192.588 15.436 192.258 15.5581 191.827 15.5581C191.387 15.5581 191.054 15.436 190.826 15.1919C190.606 14.9396 190.496 14.6385 190.496 14.2886ZM201.849 29.3887C202.386 29.3887 202.882 29.2788 203.338 29.0591C203.794 28.8394 204.168 28.5382 204.461 28.1558C204.754 27.7651 204.921 27.3216 204.961 26.8252H207.11C207.069 27.6064 206.805 28.3348 206.316 29.0103C205.836 29.6776 205.206 30.2188 204.424 30.6338C203.643 31.0407 202.785 31.2441 201.849 31.2441C200.856 31.2441 199.989 31.0692 199.249 30.7192C198.516 30.3693 197.906 29.8892 197.417 29.2788C196.937 28.6685 196.575 27.9686 196.331 27.1792C196.095 26.3817 195.977 25.5394 195.977 24.6523V24.1396C195.977 23.2526 196.095 22.4144 196.331 21.625C196.575 20.8275 196.937 20.1235 197.417 19.5132C197.906 18.9028 198.516 18.4227 199.249 18.0728C199.989 17.7228 200.856 17.5479 201.849 17.5479C202.882 17.5479 203.785 17.7594 204.559 18.1826C205.332 18.5977 205.938 19.1673 206.377 19.8916C206.825 20.6077 207.069 21.4215 207.11 22.333H204.961C204.921 21.7878 204.766 21.2954 204.498 20.856C204.237 20.4165 203.879 20.0666 203.423 19.8062C202.976 19.5376 202.451 19.4033 201.849 19.4033C201.157 19.4033 200.575 19.5417 200.103 19.8184C199.639 20.0869 199.269 20.4531 198.992 20.917C198.724 21.3727 198.528 21.8813 198.406 22.4429C198.292 22.9963 198.235 23.5618 198.235 24.1396V24.6523C198.235 25.2301 198.292 25.7998 198.406 26.3613C198.52 26.9229 198.711 27.4315 198.98 27.8872C199.257 28.3429 199.627 28.7091 200.091 28.9858C200.563 29.2544 201.149 29.3887 201.849 29.3887Z" fill="#F3F6FB"/>
<path d="M27.4563 34.3773L33.8719 45L50 18.2914H35.9672V9.89653L17.9844 0L0 9.89653V29.6926L17.9844 39.5906L27.4563 34.3773ZM44.5812 21.2858L33.8703 39.0217L23.1594 21.2858H44.5812Z" fill="white"/>
</svg>
