<svg width="222" height="45" viewBox="0 0 222 45" fill="none" xmlns="http://www.w3.org/2000/svg">
<path d="M72.7471 21.5518V22.6748C72.7471 24.0094 72.5802 25.2057 72.2466 26.2637C71.9129 27.3216 71.4328 28.2209 70.8062 28.9614C70.1795 29.702 69.4268 30.2676 68.5479 30.6582C67.6771 31.0488 66.7005 31.2441 65.6182 31.2441C64.5684 31.2441 63.604 31.0488 62.7251 30.6582C61.8543 30.2676 61.0975 29.702 60.4546 28.9614C59.8198 28.2209 59.3275 27.3216 58.9775 26.2637C58.6276 25.2057 58.4526 24.0094 58.4526 22.6748V21.5518C58.4526 20.2171 58.6235 19.0249 58.9653 17.9751C59.3153 16.9172 59.8076 16.0179 60.4424 15.2773C61.0771 14.5286 61.8299 13.959 62.7007 13.5684C63.5796 13.1777 64.5439 12.9824 65.5938 12.9824C66.6761 12.9824 67.6527 13.1777 68.5234 13.5684C69.4023 13.959 70.1551 14.5286 70.7817 15.2773C71.4165 16.0179 71.9007 16.9172 72.2344 17.9751C72.5762 19.0249 72.7471 20.2171 72.7471 21.5518ZM70.4155 22.6748V21.5273C70.4155 20.4694 70.3057 19.5335 70.0859 18.7197C69.8743 17.9059 69.561 17.2223 69.146 16.6689C68.731 16.1156 68.2223 15.6965 67.6201 15.4116C67.026 15.1268 66.3506 14.9844 65.5938 14.9844C64.8613 14.9844 64.1981 15.1268 63.604 15.4116C63.0181 15.6965 62.5135 16.1156 62.0903 16.6689C61.6753 17.2223 61.3538 17.9059 61.126 18.7197C60.8981 19.5335 60.7842 20.4694 60.7842 21.5273V22.6748C60.7842 23.7409 60.8981 24.6849 61.126 25.5068C61.3538 26.3206 61.6794 27.0083 62.1025 27.5698C62.5339 28.1232 63.0425 28.5423 63.6284 28.8271C64.2225 29.112 64.8857 29.2544 65.6182 29.2544C66.3831 29.2544 67.0627 29.112 67.6567 28.8271C68.2508 28.5423 68.7513 28.1232 69.1582 27.5698C69.5732 27.0083 69.8866 26.3206 70.0981 25.5068C70.3097 24.6849 70.4155 23.7409 70.4155 22.6748ZM81.4629 17.792V19.5254H74.3218V17.792H81.4629ZM76.7388 14.5815H78.9971V27.7285C78.9971 28.1761 79.0662 28.5138 79.2046 28.7417C79.3429 28.9696 79.522 29.1201 79.7417 29.1934C79.9614 29.2666 80.1974 29.3032 80.4497 29.3032C80.6369 29.3032 80.8322 29.2869 81.0356 29.2544C81.2472 29.2137 81.4059 29.1812 81.5117 29.1567L81.5239 31C81.3449 31.057 81.1089 31.1099 80.8159 31.1587C80.5311 31.2157 80.1852 31.2441 79.7783 31.2441C79.2249 31.2441 78.7163 31.1343 78.2524 30.9146C77.7886 30.6948 77.4183 30.3286 77.1416 29.8159C76.873 29.2951 76.7388 28.5952 76.7388 27.7163V14.5815ZM86.3701 20.3311V36.0781H84.0996V17.792H86.1748L86.3701 20.3311ZM95.269 24.2861V24.5425C95.269 25.5028 95.1551 26.3939 94.9272 27.2158C94.6994 28.0296 94.3657 28.7376 93.9263 29.3398C93.495 29.9421 92.9619 30.41 92.3271 30.7437C91.6924 31.0773 90.964 31.2441 90.1421 31.2441C89.3039 31.2441 88.5633 31.1058 87.9204 30.8291C87.2775 30.5524 86.7323 30.1496 86.2847 29.6206C85.8371 29.0916 85.479 28.4569 85.2104 27.7163C84.95 26.9757 84.771 26.1416 84.6733 25.2139V23.8467C84.771 22.8701 84.9541 21.9953 85.2227 21.2222C85.4912 20.4491 85.8452 19.7899 86.2847 19.2446C86.7323 18.6912 87.2734 18.2721 87.9082 17.9873C88.543 17.6943 89.2754 17.5479 90.1055 17.5479C90.9355 17.5479 91.672 17.7106 92.3149 18.0361C92.9578 18.3535 93.499 18.8092 93.9385 19.4033C94.3779 19.9974 94.7075 20.7095 94.9272 21.5396C95.1551 22.3615 95.269 23.277 95.269 24.2861ZM92.9985 24.5425V24.2861C92.9985 23.627 92.9294 23.0085 92.791 22.4307C92.6527 21.8447 92.437 21.332 92.144 20.8926C91.8592 20.445 91.493 20.0951 91.0454 19.8428C90.5978 19.5824 90.0648 19.4521 89.4463 19.4521C88.8766 19.4521 88.3802 19.5498 87.957 19.7451C87.542 19.9404 87.188 20.2049 86.895 20.5386C86.6021 20.8641 86.362 21.2384 86.1748 21.6616C85.9958 22.0767 85.8615 22.508 85.772 22.9556V26.1172C85.9347 26.6868 86.1626 27.224 86.4556 27.7285C86.7485 28.2249 87.1392 28.6278 87.6274 28.937C88.1157 29.2381 88.7301 29.3887 89.4707 29.3887C90.0811 29.3887 90.606 29.2625 91.0454 29.0103C91.493 28.7498 91.8592 28.3958 92.144 27.9482C92.437 27.5007 92.6527 26.988 92.791 26.4102C92.9294 25.8242 92.9985 25.2017 92.9985 24.5425ZM97.5518 24.5425V24.2617C97.5518 23.3096 97.6901 22.4266 97.9668 21.6128C98.2435 20.7909 98.6423 20.0788 99.1631 19.4766C99.6839 18.8662 100.315 18.3942 101.055 18.0605C101.796 17.7188 102.626 17.5479 103.545 17.5479C104.473 17.5479 105.307 17.7188 106.048 18.0605C106.797 18.3942 107.431 18.8662 107.952 19.4766C108.481 20.0788 108.884 20.7909 109.161 21.6128C109.437 22.4266 109.576 23.3096 109.576 24.2617V24.5425C109.576 25.4946 109.437 26.3776 109.161 27.1914C108.884 28.0052 108.481 28.7173 107.952 29.3276C107.431 29.9299 106.801 30.4019 106.06 30.7437C105.328 31.0773 104.498 31.2441 103.57 31.2441C102.642 31.2441 101.808 31.0773 101.067 30.7437C100.327 30.4019 99.6921 29.9299 99.1631 29.3276C98.6423 28.7173 98.2435 28.0052 97.9668 27.1914C97.6901 26.3776 97.5518 25.4946 97.5518 24.5425ZM99.8101 24.2617V24.5425C99.8101 25.2017 99.8874 25.8242 100.042 26.4102C100.197 26.988 100.429 27.5007 100.738 27.9482C101.055 28.3958 101.45 28.7498 101.922 29.0103C102.394 29.2625 102.943 29.3887 103.57 29.3887C104.188 29.3887 104.729 29.2625 105.193 29.0103C105.665 28.7498 106.056 28.3958 106.365 27.9482C106.674 27.5007 106.906 26.988 107.061 26.4102C107.224 25.8242 107.305 25.2017 107.305 24.5425V24.2617C107.305 23.6107 107.224 22.9963 107.061 22.4185C106.906 21.8325 106.67 21.3158 106.353 20.8682C106.044 20.4124 105.653 20.0544 105.181 19.7939C104.717 19.5335 104.172 19.4033 103.545 19.4033C102.927 19.4033 102.382 19.5335 101.91 19.7939C101.446 20.0544 101.055 20.4124 100.738 20.8682C100.429 21.3158 100.197 21.8325 100.042 22.4185C99.8874 22.9963 99.8101 23.6107 99.8101 24.2617ZM114.666 19.8672V31H112.408V17.792H114.605L114.666 19.8672ZM118.792 17.7188L118.78 19.8184C118.593 19.7777 118.414 19.7533 118.243 19.7451C118.08 19.7288 117.893 19.7207 117.681 19.7207C117.16 19.7207 116.701 19.8021 116.302 19.9648C115.903 20.1276 115.565 20.3555 115.289 20.6484C115.012 20.9414 114.792 21.2913 114.629 21.6982C114.475 22.097 114.373 22.5365 114.324 23.0166L113.689 23.3828C113.689 22.5853 113.767 21.8366 113.921 21.1367C114.084 20.4368 114.332 19.8184 114.666 19.2812C115 18.736 115.423 18.3128 115.936 18.0117C116.456 17.7025 117.075 17.5479 117.791 17.5479C117.954 17.5479 118.141 17.5682 118.353 17.6089C118.564 17.6414 118.711 17.6781 118.792 17.7188Z" fill="#DA3636"/>
<path d="M133.16 28.3022L138.396 13.2266H140.948L134.368 31H132.549L133.16 28.3022ZM128.265 13.2266L133.453 28.3022L134.1 31H132.281L125.713 13.2266H128.265ZM150.225 28.7417V21.9424C150.225 21.4215 150.119 20.9699 149.908 20.5874C149.704 20.1968 149.395 19.8957 148.98 19.6841C148.565 19.4725 148.052 19.3667 147.442 19.3667C146.872 19.3667 146.372 19.4644 145.94 19.6597C145.517 19.855 145.184 20.1113 144.939 20.4287C144.703 20.7461 144.585 21.0879 144.585 21.4541H142.327C142.327 20.9821 142.449 20.5142 142.693 20.0503C142.938 19.5864 143.287 19.1673 143.743 18.793C144.207 18.4105 144.76 18.1094 145.403 17.8896C146.054 17.6618 146.779 17.5479 147.576 17.5479C148.536 17.5479 149.383 17.7106 150.115 18.0361C150.856 18.3617 151.434 18.854 151.849 19.5132C152.272 20.1642 152.483 20.9821 152.483 21.9668V28.1191C152.483 28.5586 152.52 29.0265 152.593 29.5229C152.675 30.0194 152.793 30.4466 152.947 30.8047V31H150.591C150.477 30.7396 150.388 30.3937 150.323 29.9624C150.258 29.5229 150.225 29.116 150.225 28.7417ZM150.616 22.9922L150.64 24.5791H148.357C147.715 24.5791 147.141 24.632 146.636 24.7378C146.132 24.8354 145.708 24.986 145.367 25.1895C145.025 25.3929 144.764 25.6493 144.585 25.9585C144.406 26.2596 144.317 26.6136 144.317 27.0205C144.317 27.4355 144.41 27.814 144.598 28.1558C144.785 28.4976 145.066 28.7702 145.44 28.9736C145.822 29.1689 146.29 29.2666 146.844 29.2666C147.535 29.2666 148.146 29.1201 148.675 28.8271C149.204 28.5342 149.623 28.1761 149.932 27.7529C150.25 27.3298 150.42 26.9188 150.445 26.52L151.409 27.6064C151.352 27.9482 151.198 28.3267 150.945 28.7417C150.693 29.1567 150.355 29.5555 149.932 29.938C149.517 30.3123 149.021 30.6257 148.443 30.8779C147.873 31.1221 147.23 31.2441 146.514 31.2441C145.619 31.2441 144.834 31.0692 144.158 30.7192C143.491 30.3693 142.97 29.9014 142.596 29.3154C142.229 28.7214 142.046 28.0581 142.046 27.3257C142.046 26.6177 142.185 25.9951 142.461 25.458C142.738 24.9128 143.137 24.4611 143.658 24.103C144.179 23.7368 144.805 23.4601 145.538 23.2729C146.27 23.0858 147.088 22.9922 147.991 22.9922H150.616ZM165.875 29.1445V31H156.268V29.1445H165.875ZM165.521 19.3911L156.78 31H155.401V29.3398L164.08 17.792H165.521V19.3911ZM164.52 17.792V19.6597H155.499V17.792H164.52ZM176.568 28.4365V12.25H178.838V31H176.763L176.568 28.4365ZM167.681 24.5425V24.2861C167.681 23.277 167.803 22.3615 168.047 21.5396C168.3 20.7095 168.654 19.9974 169.109 19.4033C169.573 18.8092 170.123 18.3535 170.757 18.0361C171.4 17.7106 172.116 17.5479 172.906 17.5479C173.736 17.5479 174.46 17.6943 175.079 17.9873C175.705 18.2721 176.234 18.6912 176.666 19.2446C177.105 19.7899 177.451 20.4491 177.703 21.2222C177.955 21.9953 178.13 22.8701 178.228 23.8467V24.9697C178.139 25.9382 177.964 26.8089 177.703 27.582C177.451 28.3551 177.105 29.0143 176.666 29.5596C176.234 30.1048 175.705 30.5239 175.079 30.8169C174.452 31.1017 173.72 31.2441 172.881 31.2441C172.108 31.2441 171.4 31.0773 170.757 30.7437C170.123 30.41 169.573 29.9421 169.109 29.3398C168.654 28.7376 168.3 28.0296 168.047 27.2158C167.803 26.3939 167.681 25.5028 167.681 24.5425ZM169.952 24.2861V24.5425C169.952 25.2017 170.017 25.8201 170.147 26.3979C170.285 26.9757 170.497 27.4844 170.782 27.9238C171.067 28.3633 171.429 28.7091 171.868 28.9614C172.308 29.2056 172.833 29.3276 173.443 29.3276C174.192 29.3276 174.806 29.1689 175.286 28.8516C175.774 28.5342 176.165 28.1151 176.458 27.5942C176.751 27.0734 176.979 26.5078 177.142 25.8975V22.9556C177.044 22.508 176.902 22.0767 176.714 21.6616C176.535 21.2384 176.299 20.8641 176.006 20.5386C175.722 20.2049 175.368 19.9404 174.944 19.7451C174.529 19.5498 174.037 19.4521 173.467 19.4521C172.849 19.4521 172.316 19.5824 171.868 19.8428C171.429 20.0951 171.067 20.445 170.782 20.8926C170.497 21.332 170.285 21.8447 170.147 22.4307C170.017 23.0085 169.952 23.627 169.952 24.2861ZM190.435 27.9482V17.792H192.706V31H190.545L190.435 27.9482ZM190.862 25.165L191.802 25.1406C191.802 26.0195 191.709 26.8333 191.521 27.582C191.342 28.3226 191.049 28.9655 190.643 29.5107C190.236 30.056 189.703 30.4832 189.043 30.7925C188.384 31.0936 187.583 31.2441 186.639 31.2441C185.996 31.2441 185.406 31.1506 184.869 30.9634C184.34 30.7762 183.884 30.4873 183.501 30.0967C183.119 29.7061 182.822 29.1974 182.61 28.5708C182.407 27.9442 182.305 27.1914 182.305 26.3125V17.792H184.563V26.3369C184.563 26.931 184.629 27.4233 184.759 27.814C184.897 28.1965 185.08 28.5016 185.308 28.7295C185.544 28.9492 185.805 29.1038 186.089 29.1934C186.382 29.2829 186.683 29.3276 186.993 29.3276C187.953 29.3276 188.714 29.1445 189.275 28.7783C189.837 28.404 190.24 27.9035 190.484 27.2769C190.736 26.6421 190.862 25.9382 190.862 25.165ZM198.406 12.25V31H196.148V12.25H198.406ZM197.869 23.8955L196.929 23.8589C196.937 22.9556 197.072 22.1214 197.332 21.3564C197.592 20.5833 197.959 19.9119 198.431 19.3423C198.903 18.7726 199.464 18.3332 200.115 18.0239C200.774 17.7065 201.503 17.5479 202.3 17.5479C202.951 17.5479 203.537 17.6374 204.058 17.8164C204.579 17.9873 205.022 18.264 205.389 18.6465C205.763 19.029 206.048 19.5254 206.243 20.1357C206.438 20.738 206.536 21.4744 206.536 22.3452V31H204.266V22.3208C204.266 21.6291 204.164 21.0757 203.96 20.6606C203.757 20.2375 203.46 19.9323 203.069 19.7451C202.679 19.5498 202.199 19.4521 201.629 19.4521C201.067 19.4521 200.555 19.5701 200.091 19.8062C199.635 20.0422 199.24 20.3677 198.907 20.7827C198.581 21.1978 198.325 21.6738 198.138 22.2109C197.959 22.7399 197.869 23.3014 197.869 23.8955ZM217.706 28.7417V21.9424C217.706 21.4215 217.6 20.9699 217.388 20.5874C217.185 20.1968 216.875 19.8957 216.46 19.6841C216.045 19.4725 215.533 19.3667 214.922 19.3667C214.353 19.3667 213.852 19.4644 213.421 19.6597C212.998 19.855 212.664 20.1113 212.42 20.4287C212.184 20.7461 212.066 21.0879 212.066 21.4541H209.808C209.808 20.9821 209.93 20.5142 210.174 20.0503C210.418 19.5864 210.768 19.1673 211.224 18.793C211.688 18.4105 212.241 18.1094 212.884 17.8896C213.535 17.6618 214.259 17.5479 215.057 17.5479C216.017 17.5479 216.863 17.7106 217.596 18.0361C218.336 18.3617 218.914 18.854 219.329 19.5132C219.752 20.1642 219.964 20.9821 219.964 21.9668V28.1191C219.964 28.5586 220 29.0265 220.074 29.5229C220.155 30.0194 220.273 30.4466 220.428 30.8047V31H218.072C217.958 30.7396 217.868 30.3937 217.803 29.9624C217.738 29.5229 217.706 29.116 217.706 28.7417ZM218.096 22.9922L218.121 24.5791H215.838C215.195 24.5791 214.621 24.632 214.117 24.7378C213.612 24.8354 213.189 24.986 212.847 25.1895C212.505 25.3929 212.245 25.6493 212.066 25.9585C211.887 26.2596 211.797 26.6136 211.797 27.0205C211.797 27.4355 211.891 27.814 212.078 28.1558C212.265 28.4976 212.546 28.7702 212.92 28.9736C213.303 29.1689 213.771 29.2666 214.324 29.2666C215.016 29.2666 215.626 29.1201 216.155 28.8271C216.684 28.5342 217.103 28.1761 217.413 27.7529C217.73 27.3298 217.901 26.9188 217.925 26.52L218.89 27.6064C218.833 27.9482 218.678 28.3267 218.426 28.7417C218.174 29.1567 217.836 29.5555 217.413 29.938C216.998 30.3123 216.501 30.6257 215.923 30.8779C215.354 31.1221 214.711 31.2441 213.995 31.2441C213.099 31.2441 212.314 31.0692 211.639 30.7192C210.971 30.3693 210.451 29.9014 210.076 29.3154C209.71 28.7214 209.527 28.0581 209.527 27.3257C209.527 26.6177 209.665 25.9951 209.942 25.458C210.219 24.9128 210.617 24.4611 211.138 24.103C211.659 23.7368 212.286 23.4601 213.018 23.2729C213.75 23.0858 214.568 22.9922 215.472 22.9922H218.096Z" fill="#F3F6FB"/>
<path d="M27.4563 34.3773L33.8719 45L50 18.2914H35.9672V9.89653L17.9844 0L0 9.89653V29.6926L17.9844 39.5906L27.4563 34.3773ZM44.5812 21.2858L33.8703 39.0217L23.1594 21.2858H44.5812Z" fill="white"/>
</svg>
