<svg width="383" height="317" viewBox="0 0 383 317" fill="none" xmlns="http://www.w3.org/2000/svg">
<path d="M58.2748 261.216C58.2748 279.18 45.2295 293.742 29.1374 293.742C13.0452 293.742 0 279.18 0 261.216V54.4442C0 36.4806 13.0452 21.9182 29.1374 21.9182C45.2295 21.9182 58.2748 36.4806 58.2748 54.4442V261.216Z" fill="white"/>
<path d="M137.056 245.742H137.055C120.964 245.742 107.918 233.26 107.918 217.863V99.3769C107.918 83.9796 120.964 71.4976 137.055 71.4976H137.056C153.148 71.4976 166.193 83.9796 166.193 99.3769V217.863C166.193 233.26 153.148 245.742 137.056 245.742Z" fill="#DA3636"/>
<path d="M274.112 278.841C274.112 299.773 261.067 316.742 244.975 316.742C228.882 316.742 215.837 299.773 215.837 278.841V37.901C215.837 16.9688 228.882 0 244.975 0C261.067 0 274.112 16.9688 274.112 37.901V278.841Z" fill="white"/>
<path d="M382.022 206.863C382.022 222.26 368.977 234.742 352.885 234.742C336.793 234.742 323.748 222.26 323.748 206.863V109.038C323.748 93.6409 336.794 81.1589 352.885 81.1589C368.977 81.1589 382.022 93.6409 382.022 109.038V206.863Z" fill="#DA3636"/>
</svg>
