<svg width="1440" height="2500" viewBox="0 0 1440 2500" fill="none" xmlns="http://www.w3.org/2000/svg">
<path d="M3498 0H-502V2500H3498V0Z" fill="white"/>
<path d="M178 70.0001H67.9999V180H178V70.0001Z" fill="white"/>
<path d="M95.4965 125C110.686 125 123 112.686 123 97.4964C123 82.3066 110.686 69.9928 95.4965 69.9928C80.3067 69.9928 67.9929 82.3066 67.9929 97.4964C67.9929 112.686 80.3067 125 95.4965 125Z" fill="#FF3947"/>
<path d="M1373 250C1442.04 250 1498 194.036 1498 125C1498 55.9644 1442.04 0 1373 0C1303.96 0 1248 55.9644 1248 125C1248 194.036 1303.96 250 1373 250Z" fill="#FF3947"/>
<path d="M622.982 459.978C669.924 459.978 707.979 421.924 707.979 374.982C707.979 328.04 669.924 289.986 622.982 289.986C576.04 289.986 537.986 328.04 537.986 374.982C537.986 421.924 576.04 459.978 622.982 459.978Z" fill="#FF3947"/>
<path d="M123 680.007C153.38 680.007 178.007 655.38 178.007 625C178.007 594.62 153.38 569.993 123 569.993C92.6205 569.993 67.9929 594.62 67.9929 625C67.9929 655.38 92.6205 680.007 123 680.007Z" fill="#FF3947"/>
<path d="M873 725C928.229 725 973 680.229 973 625C973 569.772 928.229 525 873 525C817.772 525 773 569.772 773 625C773 680.229 817.772 725 873 725Z" fill="#FF3947"/>
<path d="M1238 510H1008V740H1238V510Z" fill="white"/>
<path d="M873 975C928.229 975 973 930.228 973 875C973 819.771 928.229 775 873 775C817.772 775 773 819.771 773 875C773 930.228 817.772 975 873 975Z" fill="#FF3947"/>
<path d="M1238 760H1008V990H1238V760Z" fill="white"/>
<path d="M1065.51 875C1097.26 875 1123 849.26 1123 817.507C1123 785.755 1097.26 760.014 1065.51 760.014C1033.75 760.014 1008.01 785.755 1008.01 817.507C1008.01 849.26 1033.75 875 1065.51 875Z" fill="#FF3947"/>
<path d="M1498 1000H1248V1250H1498V1000Z" fill="white"/>
<path d="M1435.5 1250C1470.02 1250 1498 1222.02 1498 1187.5C1498 1152.98 1470.02 1125 1435.5 1125C1400.98 1125 1373 1152.98 1373 1187.5C1373 1222.02 1400.98 1250 1435.5 1250Z" fill="#FF3947"/>
<path d="M123 1430.01C153.38 1430.01 178.007 1405.38 178.007 1375C178.007 1344.62 153.38 1319.99 123 1319.99C92.6205 1319.99 67.9929 1344.62 67.9929 1375C67.9929 1405.38 92.6205 1430.01 123 1430.01Z" fill="#FF3947"/>
<path d="M622.982 1709.98C669.924 1709.98 707.979 1671.92 707.979 1624.98C707.979 1578.04 669.924 1539.99 622.982 1539.99C576.04 1539.99 537.986 1578.04 537.986 1624.98C537.986 1671.92 576.04 1709.98 622.982 1709.98Z" fill="#FF3947"/>
<path d="M1373 2250C1442.04 2250 1498 2194.04 1498 2125C1498 2055.96 1442.04 2000 1373 2000C1303.96 2000 1248 2055.96 1248 2125C1248 2194.04 1303.96 2250 1373 2250Z" fill="#FF3947"/>
<path d="M1238 2260H1008V2490H1238V2260Z" fill="white"/>
</svg>
